<svg width="128" height="128" viewBox="0 0 128 128" fill="none" xmlns="http://www.w3.org/2000/svg">
<path fill-rule="evenodd" clip-rule="evenodd" d="M56.9122 128C88.3439 128 113.824 102.295 113.824 70.5857C113.824 38.8767 88.3439 13.1714 56.9122 13.1714C25.4804 13.1714 0 38.8767 0 70.5857C0 102.295 25.4804 128 56.9122 128ZM57.0963 105.332C76.2198 105.332 91.7225 89.6921 91.7225 70.3999C91.7225 51.1077 76.2198 35.4682 57.0963 35.4682C37.9728 35.4682 22.4701 51.1077 22.4701 70.3999C22.4701 89.6921 37.9728 105.332 57.0963 105.332Z" fill="#F4F4F4"/>
<path fill-rule="evenodd" clip-rule="evenodd" d="M109.148 48.001C105.512 51.7394 102.235 55.8308 99.3907 60.2079L98.9609 60.8693C97.2685 63.4736 93.4632 63.4094 91.8581 60.7494C86.0819 51.177 78.1721 43.0957 68.7574 37.1477L67.2248 36.1795C64.9067 34.715 65.0209 31.2708 67.4307 29.9658C72.7821 27.0679 77.6427 23.3903 81.8688 19.0759C94.0512 25.0904 103.783 35.3771 109.148 48.001Z" fill="#0085EA" fill-opacity="0.6"/>
<path fill-rule="evenodd" clip-rule="evenodd" d="M98.7527 4.5977C97.1895 2.19222 93.653 2.32137 92.2664 4.83459L91.7094 5.84405C86.0713 16.0627 77.6449 24.4346 67.4307 29.9657C65.0209 31.2707 64.9067 34.7149 67.2248 36.1794L68.7574 37.1477C78.1721 43.0957 86.0819 51.177 91.8581 60.7494C92.761 62.2457 94.36 62.9206 95.8875 62.7612C94.36 62.9205 92.7611 62.2456 91.8583 60.7494C86.0821 51.177 78.1723 43.0956 68.7575 37.1477L67.2249 36.1794C64.9068 34.7149 65.021 31.2707 67.4309 29.9657C72.7822 27.0678 77.6428 23.3902 81.8689 19.0759C94.0512 25.0904 103.783 35.377 109.148 48.001C105.512 51.7393 102.235 55.8308 99.3907 60.2078L98.9609 60.8693C98.5508 61.5002 98.0168 61.9745 97.4201 62.2933C98.0169 61.9745 98.5509 61.5002 98.961 60.8693L99.3908 60.2078C102.235 55.8308 105.512 51.7394 109.148 48.0011C109.148 48.001 109.148 48.001 109.148 48.001C113.19 43.8439 117.675 40.1235 122.5 36.9326C125.361 35.0405 125.409 30.7783 122.548 28.8862L122.202 28.6579C113.163 22.6797 105.44 14.8886 99.5142 5.76947L98.7527 4.5977Z" fill="#0085EA"/>
<path fill-rule="evenodd" clip-rule="evenodd" d="M98.7527 4.5977C97.1895 2.19222 93.653 2.32137 92.2664 4.83459L91.7094 5.84405C86.0713 16.0627 77.6449 24.4346 67.4307 29.9657C65.0209 31.2707 64.9067 34.7149 67.2248 36.1794L68.7574 37.1477C78.1721 43.0957 86.0819 51.177 91.8581 60.7494C92.761 62.2457 94.36 62.9206 95.8875 62.7612C94.36 62.9205 92.7611 62.2456 91.8583 60.7494C86.0821 51.177 78.1723 43.0956 68.7575 37.1477L67.2249 36.1794C64.9068 34.7149 65.021 31.2707 67.4309 29.9657C72.7822 27.0678 77.6428 23.3902 81.8689 19.0759C94.0512 25.0904 103.783 35.377 109.148 48.001C105.512 51.7393 102.235 55.8308 99.3907 60.2078L98.9609 60.8693C98.5508 61.5002 98.0168 61.9745 97.4201 62.2933C98.0169 61.9745 98.5509 61.5002 98.961 60.8693L99.3908 60.2078C102.235 55.8308 105.512 51.7394 109.148 48.0011C109.148 48.001 109.148 48.001 109.148 48.001C113.19 43.8439 117.675 40.1235 122.5 36.9326C125.361 35.0405 125.409 30.7783 122.548 28.8862L122.202 28.6579C113.163 22.6797 105.44 14.8886 99.5142 5.76947L98.7527 4.5977Z" fill="#0085EA"/>
</svg>
