<svg width="200" height="200" viewBox="0 0 200 200" fill="none" xmlns="http://www.w3.org/2000/svg">
<rect width="200" height="200" rx="100" fill="#98EC2D"/>
<path fill-rule="evenodd" clip-rule="evenodd" d="M119.259 156.892C138.265 156.892 153.672 141.392 153.672 122.271C153.672 103.149 138.265 87.6488 119.259 87.6488C100.254 87.6488 84.847 103.149 84.847 122.271C84.847 141.392 100.254 156.892 119.259 156.892ZM119.259 172.902C147.053 172.902 169.585 150.234 169.585 122.271C169.585 94.3073 147.053 71.6387 119.259 71.6387C91.4653 71.6387 68.9338 94.3073 68.9338 122.271C68.9338 150.234 91.4653 172.902 119.259 172.902Z" fill="#1B1B1B"/>
<path fill-rule="evenodd" clip-rule="evenodd" d="M155.336 42.6867C164.139 51.2901 170.975 61.9194 175.101 73.8267C162.907 61.8241 146.217 54.4255 127.81 54.4255C93.4239 54.4255 65.0317 80.2436 60.7397 113.663C60.3694 110.78 60.1785 107.841 60.1785 104.857C60.1785 67.2783 90.458 36.8145 127.81 36.8145C137.612 36.8145 146.927 38.9126 155.336 42.6867Z" fill="#1B1B1B"/>
<path fill-rule="evenodd" clip-rule="evenodd" d="M177.034 120.246C178.664 113.853 179.531 107.152 179.531 100.247C179.531 94.7517 178.981 89.3853 177.936 84.2004C166.735 71.4508 150.796 62.887 132.604 61.4383C129.647 61.2028 126.72 61.1624 123.834 61.3063C152.415 67.3597 173.823 91.3385 177.034 120.246Z" fill="#1B1B1B"/>
<path fill-rule="evenodd" clip-rule="evenodd" d="M142.805 32.6734C137.472 31.4518 131.921 30.8068 126.221 30.8068C85.1337 30.8068 51.8264 64.317 51.8264 105.654C51.8264 142.531 78.3345 173.179 113.226 179.363C108.85 180.111 104.353 180.501 99.7648 180.501C55.712 180.501 20 144.572 20 100.251C20 55.9294 55.712 20 99.7648 20C115.616 20 130.388 24.6521 142.805 32.6734Z" fill="#1B1B1B"/>
</svg>
