<svg width="127" height="128" viewBox="0 0 127 128" fill="none" xmlns="http://www.w3.org/2000/svg">
<path d="M63.4998 127.25C98.4042 127.25 126.7 98.954 126.7 64.0496C126.7 29.1452 98.4042 0.849609 63.4998 0.849609C28.5954 0.849609 0.299805 29.1452 0.299805 64.0496C0.299805 98.954 28.5954 127.25 63.4998 127.25Z" fill="black"/>
<path d="M100.17 51.18C106.48 43.49 105.36 32.0901 97.6601 25.7801C89.9701 19.4701 78.5701 20.5901 72.2601 28.2901C69.2001 32.0201 67.7801 36.7101 68.2501 41.5101C68.7201 46.3101 71.0401 50.6301 74.7601 53.6901C78.1101 56.4401 82.1601 57.7801 86.1901 57.7801C88.2601 57.7801 90.3201 57.4201 92.2801 56.7201C92.7401 58.6501 92.9801 60.6401 92.9801 62.6701C92.9801 76.7801 81.5001 88.2501 67.4001 88.2501C62.6701 88.2501 58.1001 86.9501 54.1301 84.5401C55.2701 83.7401 56.4001 82.9201 57.5001 82.0701C63.3201 77.6001 68.3801 72.6901 72.1301 67.8901C73.5201 66.1201 73.2001 63.5601 71.4301 62.1701C69.6601 60.7801 67.1002 61.1 65.7102 62.87C62.3702 67.14 57.8201 71.54 52.5301 75.61C49.8401 77.68 47.2902 79.41 44.9102 80.87C44.8502 80.91 44.7901 80.9401 44.7301 80.9801C34.6101 87.1201 27.6101 88.1 26.2601 87.18C26.1401 86.74 26.2301 84.66 28.7501 80.68C31.3001 76.66 35.4602 72.0801 40.4602 67.7901L42.0101 66.46L41.8701 64.4201C41.8301 63.8401 41.8101 63.2601 41.8101 62.6701C41.8101 52.5101 47.8201 43.3101 57.1201 39.2301C59.1801 38.3301 60.1202 35.92 59.2102 33.86C58.3102 31.8 55.9001 30.86 53.8401 31.77C41.5801 37.15 33.6501 49.2801 33.6501 62.6701C33.6501 62.7501 33.6501 62.8301 33.6501 62.9101C23.4101 72.1001 14.1101 84.78 19.7701 92.15C21.6101 94.54 24.4301 95.5801 27.8401 95.5801C33.1501 95.5801 39.9002 93.0601 46.6302 89.2801C52.5402 93.9001 59.8001 96.42 67.3801 96.42C85.9802 96.42 101.11 81.2901 101.11 62.6901C101.11 59.0401 100.53 55.47 99.3901 52.06C99.6801 51.75 99.9301 51.47 100.17 51.18ZM79.9401 47.3801C77.9001 45.7001 76.6301 43.3301 76.3701 40.7001C76.1101 38.0701 76.8902 35.4901 78.5702 33.4501C80.5202 31.0701 83.3701 29.83 86.2301 29.83C88.4401 29.83 90.6601 30.5601 92.5001 32.0701C96.7201 35.5301 97.3401 41.7801 93.8801 46.0001C90.4101 50.2301 84.1601 50.8401 79.9401 47.3801Z" fill="white"/>
</svg>
