<svg width="200" height="200" viewBox="0 0 200 200" fill="none" xmlns="http://www.w3.org/2000/svg">
<g clip-path="url(#clip0_1957_627)">
<rect width="200" height="200" fill="black"/>
<path d="M99.9998 200C155.228 200 200 155.228 200 99.9997C200 44.7714 155.228 0 99.9998 0C44.7714 0 0 44.7714 0 99.9997C0 155.228 44.7714 200 99.9998 200Z" fill="black"/>
<path d="M157.749 79.9693C167.686 67.9537 165.922 50.1413 153.796 40.2819C141.686 30.4226 123.733 32.1726 113.796 44.2038C108.977 50.0319 106.741 57.3601 107.481 64.8601C108.221 72.3601 111.875 79.1101 117.733 83.8913C123.009 88.1882 129.387 90.2819 135.733 90.2819C138.993 90.2819 142.237 89.7194 145.324 88.6257C146.048 91.6413 146.426 94.7507 146.426 97.9226C146.426 119.969 128.347 137.891 106.143 137.891C98.6937 137.891 91.4969 135.86 85.2449 132.094C87.0402 130.844 88.8197 129.563 90.552 128.235C99.7174 121.251 107.686 113.579 113.591 106.079C115.78 103.313 115.276 99.3132 112.489 97.1413C109.702 94.9694 105.67 95.4693 103.481 98.2349C98.2215 104.907 91.0559 111.782 82.7252 118.141C78.489 121.376 74.4734 124.079 70.7254 126.36C70.6309 126.422 70.5363 126.469 70.4418 126.532C54.5048 136.126 43.4811 137.657 41.3552 136.219C41.1662 135.532 41.3079 132.282 45.2764 126.063C49.2922 119.782 55.8435 112.626 63.7175 105.923L66.1583 103.844L65.9378 100.657C65.8748 99.7507 65.8433 98.8444 65.8433 97.9226C65.8433 82.0476 75.3079 67.6726 89.9536 61.2976C93.1977 59.8913 94.6781 56.1255 93.2451 52.9068C91.8278 49.688 88.0323 48.2193 84.7882 49.6412C65.4811 58.0474 52.993 77.0007 52.993 97.9226C52.993 98.0476 52.993 98.1726 52.993 98.2976C36.867 112.657 22.2213 132.469 31.1347 143.985C34.0323 147.719 38.4733 149.344 43.8433 149.344C52.2055 149.344 62.8356 145.407 73.4341 139.501C82.7411 146.719 94.174 150.657 106.111 150.657C135.403 150.657 159.229 127.016 159.229 97.9538C159.229 92.2507 158.316 86.6724 156.521 81.3443C156.977 80.8599 157.371 80.4224 157.749 79.9693ZM125.891 74.0319C122.678 71.4069 120.678 67.7038 120.269 63.5944C119.859 59.4851 121.088 55.4538 123.733 52.2663C126.804 48.5476 131.292 46.6099 135.796 46.6099C139.276 46.6099 142.772 47.7507 145.67 50.1101C152.316 55.5163 153.292 65.2819 147.843 71.8757C142.379 78.4851 132.536 79.4382 125.891 74.0319Z" fill="white"/>
</g>
<defs>
<clipPath id="clip0_1957_627">
<rect width="200" height="200" fill="white"/>
</clipPath>
</defs>
</svg>
