<svg xmlns:xlink="http://www.w3.org/1999/xlink" width="248" height="88" fill="none" xmlns="http://www.w3.org/2000/svg" id="svg230114418_1297"><path d="M39.618 86V50.299c0-8.14-4.245-10.691-10.909-10.691-2.6.058-5.152.712-7.461 1.913a17.04 17.04 0 0 0-5.857 5.014V86H0V5h15.39v29.996a27.069 27.069 0 0 1 9.306-6.806 27.003 27.003 0 0 1 11.286-2.309C48.818 25.881 55 32.927 55 44.347V86H39.618Zm55.158 1C76.953 87 64 74.663 64 55.495 64 36.328 76.62 24 94.776 24c17.713 0 30.223 12.007 30.223 30.173a36.011 36.011 0 0 1-.443 5.949H79.72c.775 9.033 6.975 14.1 14.76 14.1 6.643 0 10.296-3.305 12.289-7.344h16.717C120.164 78.078 109.98 87 94.776 87ZM79.831 49.776h29.152c-.221-8.04-6.642-13.108-14.613-13.108-7.417 0-13.285 4.737-14.502 13.108h-.037ZM133 5h15v81h-15V5Zm25 3.996C158 3.949 161.984 0 167.518 0 173.052 0 177 3.913 177 8.996s-4.095 8.996-9.518 8.996c-5.424 0-9.482-3.986-9.482-8.996Zm1.66 16.236h15.495V86H159.66V25.232Z" fill="#FFFFFF"></path><path d="M234.13 54a18.185 18.185 0 0 0-36.306 0H184a31.997 31.997 0 0 1 32-32 31.998 31.998 0 0 1 32 32h-13.87Zm-17.457 34a31.64 31.64 0 0 1-16.943-4.92A31.924 31.924 0 0 1 188 69.83L200.434 64a18.132 18.132 0 0 0 6.494 7.35 17.974 17.974 0 0 0 9.349 2.868 17.97 17.97 0 0 0 9.465-2.455 18.109 18.109 0 0 0 6.806-7.06L245 70.544a32.052 32.052 0 0 1-11.731 12.727A31.782 31.782 0 0 1 216.673 88Z" fill="#F76C1B"></path></svg>