<svg xmlns="http://www.w3.org/2000/svg" xmlns:xlink="http://www.w3.org/1999/xlink" viewBox="0 0 157.44 159.81"><defs><style>.cls-1{fill:url(#linear-gradient);}</style><linearGradient id="linear-gradient" x1="129.68" y1="14.68" x2="31.04" y2="142.67" gradientUnits="userSpaceOnUse"><stop offset="0" stop-color="#CB6CE6"/><stop offset="0.99" stop-color="#0192F4"/></linearGradient></defs><title>sniper-logo-2</title><g id="Layer_2" data-name="Layer 2"><g id="Layer_1-2" data-name="Layer 1"><path class="cls-1" d="M149.41,72.47H98.22a20.84,20.84,0,0,0-39,0h-26a47.22,47.22,0,0,1,84.58-20.64,8,8,0,1,0,12.9-9.56A63.57,63.57,0,0,0,87.35,17.08V8A8,8,0,0,0,71.28,8v9.2a63.4,63.4,0,0,0-54.2,55.24H8A8,8,0,0,0,8,88.53H59.75a20.85,20.85,0,0,0,38,0h28.8c-3.55,22.15-22.74,38.59-46.61,38.59A46.92,46.92,0,0,1,42.5,108.71a8,8,0,0,0-12.72,9.81,62.84,62.84,0,0,0,41.5,24.06v9.2a8,8,0,0,0,16.07,0v-9c29.36-3.24,52-25.44,55.38-54.23h6.68a8,8,0,1,0,0-16.06Z"/></g></g></svg>