<?xml version="1.0" encoding="UTF-8"?>
<!DOCTYPE svg PUBLIC "-//W3C//DTD SVG 1.1//EN" "http://www.w3.org/Graphics/SVG/1.1/DTD/svg11.dtd">
<svg xmlns="http://www.w3.org/2000/svg" version="1.1" width="450px" height="450px" style="shape-rendering:geometricPrecision; text-rendering:geometricPrecision; image-rendering:optimizeQuality; fill-rule:evenodd; clip-rule:evenodd" xmlns:xlink="http://www.w3.org/1999/xlink">
<g><path style="opacity:1" fill="#856b6b" d="M 218.5,51.5 C 218.5,51.8333 218.5,52.1667 218.5,52.5C 202.556,50.8046 186.556,50.1379 170.5,50.5C 170.5,50.1667 170.5,49.8333 170.5,49.5C 186.44,47.9358 202.44,48.6024 218.5,51.5 Z"/></g>
<g><path style="opacity:1" fill="#c8b2b6" d="M 169.5,50.5 C 169.833,50.5 170.167,50.5 170.5,50.5C 186.556,50.1379 202.556,50.8046 218.5,52.5C 223.833,52.1667 223.833,51.8333 218.5,51.5C 222.457,50.6301 226.457,51.1301 230.5,53C 229.5,53.3333 228.5,53.6667 227.5,54C 229.436,54.813 231.436,55.313 233.5,55.5C 237.293,57.4903 241.293,58.3237 245.5,58C 244.833,58.3333 244.167,58.6667 243.5,59C 245.743,60.1362 248.076,60.9695 250.5,61.5C 250.842,62.3382 251.508,62.6716 252.5,62.5C 252.721,63.7348 253.388,64.7348 254.5,65.5C 254.167,65.8333 253.833,66.1667 253.5,66.5C 235.647,58.747 216.98,54.247 197.5,53C 187.167,52.6667 176.833,52.3333 166.5,52C 167.737,51.7679 168.737,51.2679 169.5,50.5 Z"/></g>
<g><path style="opacity:0.016" fill="#c09e9d" d="M 233.5,55.5 C 234.251,54.4265 235.251,54.2599 236.5,55C 235.552,55.4828 234.552,55.6495 233.5,55.5 Z"/></g>
<g><path style="opacity:1" fill="#948699" d="M 169.5,50.5 C 168.737,51.2679 167.737,51.7679 166.5,52C 176.833,52.3333 187.167,52.6667 197.5,53C 216.98,54.247 235.647,58.747 253.5,66.5C 253.833,66.1667 254.167,65.8333 254.5,65.5C 253.388,64.7348 252.721,63.7348 252.5,62.5C 252.158,61.6618 251.492,61.3284 250.5,61.5C 252.089,60.3789 253.756,60.5456 255.5,62C 254.833,62.3333 254.167,62.6667 253.5,63C 254.745,63.7914 256.078,64.2914 257.5,64.5C 257.833,64.5 258.167,64.5 258.5,64.5C 258.5,65.1667 258.833,65.5 259.5,65.5C 259.833,65.5 260.167,65.5 260.5,65.5C 260.5,66.1667 260.833,66.5 261.5,66.5C 261.833,66.5 262.167,66.5 262.5,66.5C 262.5,67.1667 262.833,67.5 263.5,67.5C 263.833,67.5 264.167,67.5 264.5,67.5C 264.5,67.8333 264.5,68.1667 264.5,68.5C 261.646,68.0761 258.979,67.0761 256.5,65.5C 256.167,65.8333 255.833,66.1667 255.5,66.5C 256.948,67.3539 258.281,68.3539 259.5,69.5C 266.596,73.2672 273.93,76.7672 281.5,80C 282.167,81 282.833,82 283.5,83C 291.333,87.4155 299,92.0822 306.5,97C 319.657,108.158 332.157,119.991 344,132.5C 355.702,146.481 366.036,161.148 375,176.5C 375.667,179.167 376.333,181.833 377,184.5C 381.519,193.565 386.185,202.565 391,211.5C 391.49,212.793 391.657,214.127 391.5,215.5C 390.167,213.5 388.833,211.5 387.5,209.5C 381.313,199.467 375.813,188.8 371,177.5C 364.433,168.713 358.1,159.713 352,150.5C 338.861,136.693 325.694,122.86 312.5,109C 270.417,76.5593 223.25,60.3927 171,60.5C 169.667,61.1667 168.333,61.8333 167,62.5C 162.197,62.5248 157.364,62.5248 152.5,62.5C 148.003,63.9444 143.503,65.2777 139,66.5C 138.729,64.193 139.895,63.0264 142.5,63C 141.833,62.8333 141.167,62.6667 140.5,62.5C 135.999,63.9246 131.666,65.5912 127.5,67.5C 131.292,63.4401 135.626,60.1068 140.5,57.5C 149.722,53.7787 159.389,51.4453 169.5,50.5 Z"/></g>
<g><path style="opacity:1" fill="#81778e" d="M 387.5,209.5 C 389.462,220.894 391.795,232.227 394.5,243.5C 393.194,248.131 393.527,252.631 395.5,257C 394.941,257.725 394.608,258.558 394.5,259.5C 395.727,265.211 396.394,270.711 396.5,276C 396.333,277.833 396.167,279.667 396,281.5C 395.056,277.391 394.222,273.391 393.5,269.5C 392.248,267.661 392.248,265.828 393.5,264C 392.142,262.168 391.808,260.335 392.5,258.5C 388.797,249.814 385.131,241.148 381.5,232.5C 378.724,221.944 374.557,211.944 369,202.5C 365.096,190.691 360.096,179.358 354,168.5C 344.612,156.111 335.612,143.445 327,130.5C 318.041,120.203 307.874,111.369 296.5,104C 273.141,91.7642 248.307,83.2642 222,78.5C 211.195,79.4435 200.362,79.7768 189.5,79.5C 189.611,78.8826 189.944,78.3826 190.5,78C 165.047,76.5086 143.047,84.1753 124.5,101C 122.5,101.667 120.5,102.333 118.5,103C 103.048,120.472 94.5481,140.972 93,164.5C 92.4751,179.588 93.4751,194.588 96,209.5C 97.1581,209.998 97.9915,210.831 98.5,212C 99.0943,216.756 100.094,221.423 101.5,226C 101.43,226.765 101.097,227.265 100.5,227.5C 90.9258,204.91 88.2591,181.577 92.5,157.5C 92.534,153.364 92.534,149.197 92.5,145C 94.5694,137.893 96.5694,130.727 98.5,123.5C 98.3918,122.558 98.0585,121.725 97.5,121C 99.9042,120.492 100.571,119.325 99.5,117.5C 100.716,115.696 101.716,114.029 102.5,112.5C 102.291,111.914 101.957,111.414 101.5,111C 103.235,103.552 105.569,96.2182 108.5,89C 108.333,88.5 108.167,88 108,87.5C 105.817,89.9071 103.65,92.2404 101.5,94.5C 102.441,92.5336 103.441,90.5336 104.5,88.5C 108.823,84.0078 112.99,79.3412 117,74.5C 120.128,71.5264 123.628,69.1931 127.5,67.5C 131.666,65.5912 135.999,63.9246 140.5,62.5C 141.167,62.6667 141.833,62.8333 142.5,63C 139.895,63.0264 138.729,64.193 139,66.5C 143.503,65.2777 148.003,63.9444 152.5,62.5C 157.364,62.5248 162.197,62.5248 167,62.5C 168.333,61.8333 169.667,61.1667 171,60.5C 223.25,60.3927 270.417,76.5593 312.5,109C 325.694,122.86 338.861,136.693 352,150.5C 358.1,159.713 364.433,168.713 371,177.5C 375.813,188.8 381.313,199.467 387.5,209.5 Z"/></g>
<g><path style="opacity:1" fill="#41312a" d="M 232.5,84.5 C 234.261,85.3127 235.928,86.3127 237.5,87.5C 235.621,87.3932 235.288,87.8932 236.5,89C 241.58,90.8043 246.58,92.8043 251.5,95C 250.552,95.4828 249.552,95.6495 248.5,95.5C 218.825,84.1708 188.491,81.5042 157.5,87.5C 161.664,84.6657 166.331,82.999 171.5,82.5C 191.892,79.5953 212.225,80.2619 232.5,84.5 Z"/></g>
<g><path style="opacity:1" fill="#080809" d="M 248.5,95.5 C 257.156,99.3253 265.823,103.492 274.5,108C 281.398,113.079 288.398,117.913 295.5,122.5C 329.18,151.367 352.68,187.034 366,229.5C 368.741,239.334 370.574,249.334 371.5,259.5C 373.609,288.091 366.276,313.758 349.5,336.5C 345.141,340.528 340.807,344.528 336.5,348.5C 330.112,352.361 323.446,355.694 316.5,358.5C 344.018,341.593 359.018,316.259 361.5,282.5C 362.882,251.577 356.048,222.577 341,195.5C 325.509,168.337 305.343,145.171 280.5,126C 279.5,125.5 278.5,125 277.5,124.5C 276.537,124.97 276.537,125.637 277.5,126.5C 263.918,117.377 249.251,110.377 233.5,105.5C 233.5,104.5 233.5,103.5 233.5,102.5C 224.106,100.32 214.772,97.8196 205.5,95C 193.5,94.3333 181.5,94.3333 169.5,95C 166.809,95.1558 164.476,95.9891 162.5,97.5C 142.852,101.818 127.185,112.151 115.5,128.5C 114.957,128.44 114.624,128.107 114.5,127.5C 125.124,109.865 139.457,96.5318 157.5,87.5C 188.491,81.5042 218.825,84.1708 248.5,95.5 Z"/></g>
<g><path style="opacity:1" fill="#73697d" d="M 381.5,232.5 C 380.732,231.737 380.232,230.737 380,229.5C 379.329,228.748 378.496,228.414 377.5,228.5C 373.274,217.938 369.107,207.271 365,196.5C 361.21,192.59 358.71,187.924 357.5,182.5C 356.675,181.614 355.675,181.281 354.5,181.5C 352.944,175.97 350.777,170.637 348,165.5C 336.973,150.242 325.14,135.742 312.5,122C 307.665,119.85 303.332,116.85 299.5,113C 283.513,102.506 266.513,93.8394 248.5,87C 243.07,86.6384 237.736,85.8051 232.5,84.5C 212.225,80.2619 191.892,79.5953 171.5,82.5C 177.109,80.0627 183.109,79.0627 189.5,79.5C 200.362,79.7768 211.195,79.4435 222,78.5C 248.307,83.2642 273.141,91.7642 296.5,104C 307.874,111.369 318.041,120.203 327,130.5C 335.612,143.445 344.612,156.111 354,168.5C 360.096,179.358 365.096,190.691 369,202.5C 374.557,211.944 378.724,221.944 381.5,232.5 Z"/></g>
<g><path style="opacity:1" fill="#776d84" d="M 177.5,99.5 C 187.04,101.125 196.706,102.625 206.5,104C 214.809,107.196 222.809,110.196 230.5,113C 234.617,116.15 238.451,119.65 242,123.5C 242.191,127.012 242.357,130.512 242.5,134C 240.382,139.73 237.716,145.564 234.5,151.5C 226.842,151.986 219.175,152.32 211.5,152.5C 203.836,152.889 196.17,153.222 188.5,153.5C 185.5,153.5 182.5,153.5 179.5,153.5C 177.801,153.66 176.134,153.494 174.5,153C 178.833,152.667 183.167,152.333 187.5,152C 178.756,150.955 178.922,149.122 188,146.5C 188,145.167 188,143.833 188,142.5C 191.207,145.007 194.374,144.841 197.5,142C 195.071,141.549 194.904,140.715 197,139.5C 197.333,139.833 197.667,140.167 198,140.5C 198.065,138.117 198.898,137.45 200.5,138.5C 201.315,136.724 202.482,136.057 204,136.5C 204.333,134.953 203.833,133.62 202.5,132.5C 205.131,130.995 204.797,130.329 201.5,130.5C 201.292,128.08 201.626,125.747 202.5,123.5C 201.092,122.757 199.759,121.923 198.5,121C 199.34,119.334 198.84,119.167 197,120.5C 194.626,118.887 191.96,116.887 189,114.5C 188.136,118.097 186.969,117.93 185.5,114C 184.216,113.316 183.049,113.483 182,114.5C 181.581,113.328 180.915,112.328 180,111.5C 177.968,112.643 175.968,113.643 174,114.5C 173.454,113.711 172.787,112.711 172,111.5C 168.445,112.428 165.112,112.428 162,111.5C 160.524,114.432 158.857,114.766 157,112.5C 156.259,113.641 155.425,113.641 154.5,112.5C 150.976,113.635 147.81,115.302 145,117.5C 144.29,116.027 143.124,115.36 141.5,115.5C 142.167,114.5 142.833,113.5 143.5,112.5C 147.96,109.218 152.794,106.551 158,104.5C 164.385,102.315 170.885,100.648 177.5,99.5 Z"/></g>
<g><path style="opacity:1" fill="#7a7188" d="M 179.5,153.5 C 176.375,154.479 173.042,154.813 169.5,154.5C 164.878,154.156 160.545,154.823 156.5,156.5C 155.833,156.5 155.167,156.5 154.5,156.5C 154.065,153.404 153.565,150.404 153,147.5C 154.585,148.376 155.585,149.709 156,151.5C 156.833,150.667 157.667,149.833 158.5,149C 158.5,147.667 158.5,146.333 158.5,145C 160.434,143.647 162.267,142.147 164,140.5C 165.913,142.187 168.08,142.687 170.5,142C 166.538,140.789 165.871,138.789 168.5,136C 167.874,135.25 167.374,134.416 167,133.5C 164.957,134.579 163.624,136.246 163,138.5C 162.5,138 162,137.5 161.5,137C 166.104,132.924 165.437,130.257 159.5,129C 161.912,126.965 161.245,125.965 157.5,126C 158.696,125.346 158.696,124.846 157.5,124.5C 156.614,125.325 156.281,126.325 156.5,127.5C 155.448,127.649 154.448,127.483 153.5,127C 153.833,126.667 154.167,126.333 154.5,126C 152.06,123.709 149.393,123.209 146.5,124.5C 147.376,125.251 148.376,125.751 149.5,126C 148.833,126.333 148.167,126.667 147.5,127C 147.928,129.629 148.928,131.962 150.5,134C 148.424,135.693 146.091,136.36 143.5,136C 143.958,133.602 145.292,131.936 147.5,131C 146.069,130.535 144.903,129.701 144,128.5C 142.601,129.227 141.101,129.727 139.5,130C 140.258,131.364 139.758,132.531 138,133.5C 136.548,132.093 136.715,130.593 138.5,129C 138.167,128.833 137.833,128.667 137.5,128.5C 136.5,129.833 135.5,131.167 134.5,132.5C 134.167,131.833 133.833,131.167 133.5,130.5C 130.128,131.47 126.795,132.47 123.5,133.5C 124.248,131.668 125.248,130.001 126.5,128.5C 130.583,123.082 135.583,118.749 141.5,115.5C 143.124,115.36 144.29,116.027 145,117.5C 147.81,115.302 150.976,113.635 154.5,112.5C 155.425,113.641 156.259,113.641 157,112.5C 158.857,114.766 160.524,114.432 162,111.5C 165.112,112.428 168.445,112.428 172,111.5C 172.787,112.711 173.454,113.711 174,114.5C 175.968,113.643 177.968,112.643 180,111.5C 180.915,112.328 181.581,113.328 182,114.5C 183.049,113.483 184.216,113.316 185.5,114C 186.969,117.93 188.136,118.097 189,114.5C 191.96,116.887 194.626,118.887 197,120.5C 198.84,119.167 199.34,119.334 198.5,121C 199.759,121.923 201.092,122.757 202.5,123.5C 201.626,125.747 201.292,128.08 201.5,130.5C 204.797,130.329 205.131,130.995 202.5,132.5C 203.833,133.62 204.333,134.953 204,136.5C 202.482,136.057 201.315,136.724 200.5,138.5C 198.898,137.45 198.065,138.117 198,140.5C 197.667,140.167 197.333,139.833 197,139.5C 194.904,140.715 195.071,141.549 197.5,142C 194.374,144.841 191.207,145.007 188,142.5C 188,143.833 188,145.167 188,146.5C 178.922,149.122 178.756,150.955 187.5,152C 183.167,152.333 178.833,152.667 174.5,153C 176.134,153.494 177.801,153.66 179.5,153.5 Z"/></g>
<g><path style="opacity:1" fill="#62657f" d="M 135.5,116.5 C 124.091,124.075 114.924,133.742 108,145.5C 109.369,139.419 111.869,133.753 115.5,128.5C 127.185,112.151 142.852,101.818 162.5,97.5C 173.758,95.6142 185.091,95.1142 196.5,96C 179.376,95.3456 163.042,98.5123 147.5,105.5C 146.269,106.651 146.269,107.817 147.5,109C 142.619,110.32 138.619,112.82 135.5,116.5 Z"/></g>
<g><path style="opacity:1" fill="#6c6174" d="M 177.5,99.5 C 190.754,97.9847 204.088,98.4847 217.5,101C 216.833,101.333 216.167,101.667 215.5,102C 223.921,104.709 232.255,107.709 240.5,111C 245.497,114.834 250.83,118.167 256.5,121C 258,122.5 259.5,124 261,125.5C 261.333,124.833 261.667,124.167 262,123.5C 263.955,124.453 265.622,125.787 267,127.5C 267.333,126.833 267.667,126.167 268,125.5C 271.037,127.027 273.537,129.193 275.5,132C 278.821,132.813 281.821,134.313 284.5,136.5C 289.314,140.866 293.981,145.199 298.5,149.5C 285.47,149.244 272.47,149.577 259.5,150.5C 251.809,150.403 244.142,150.737 236.5,151.5C 235.833,151.5 235.167,151.5 234.5,151.5C 237.716,145.564 240.382,139.73 242.5,134C 242.357,130.512 242.191,127.012 242,123.5C 238.451,119.65 234.617,116.15 230.5,113C 222.809,110.196 214.809,107.196 206.5,104C 196.706,102.625 187.04,101.125 177.5,99.5 Z"/></g>
<g><path style="opacity:1" fill="#797189" d="M 154.5,156.5 C 153.488,157.872 152.488,159.205 151.5,160.5C 151.5,159.833 151.167,159.5 150.5,159.5C 148.139,159.674 145.806,160.007 143.5,160.5C 143.649,161.552 143.483,162.552 143,163.5C 138.051,167.291 133.218,171.125 128.5,175C 127.167,176.667 125.833,178.333 124.5,180C 122.32,180.419 120.154,180.252 118,179.5C 116.188,179.493 114.688,180.16 113.5,181.5C 110.196,178.653 108.862,174.986 109.5,170.5C 111.031,156.899 115.697,144.566 123.5,133.5C 126.795,132.47 130.128,131.47 133.5,130.5C 133.833,131.167 134.167,131.833 134.5,132.5C 135.5,131.167 136.5,129.833 137.5,128.5C 137.833,128.667 138.167,128.833 138.5,129C 136.715,130.593 136.548,132.093 138,133.5C 139.758,132.531 140.258,131.364 139.5,130C 141.101,129.727 142.601,129.227 144,128.5C 144.903,129.701 146.069,130.535 147.5,131C 145.292,131.936 143.958,133.602 143.5,136C 146.091,136.36 148.424,135.693 150.5,134C 148.928,131.962 147.928,129.629 147.5,127C 148.167,126.667 148.833,126.333 149.5,126C 148.376,125.751 147.376,125.251 146.5,124.5C 149.393,123.209 152.06,123.709 154.5,126C 154.167,126.333 153.833,126.667 153.5,127C 154.448,127.483 155.448,127.649 156.5,127.5C 156.281,126.325 156.614,125.325 157.5,124.5C 158.696,124.846 158.696,125.346 157.5,126C 161.245,125.965 161.912,126.965 159.5,129C 165.437,130.257 166.104,132.924 161.5,137C 162,137.5 162.5,138 163,138.5C 163.624,136.246 164.957,134.579 167,133.5C 167.374,134.416 167.874,135.25 168.5,136C 165.871,138.789 166.538,140.789 170.5,142C 168.08,142.687 165.913,142.187 164,140.5C 162.267,142.147 160.434,143.647 158.5,145C 158.5,146.333 158.5,147.667 158.5,149C 157.667,149.833 156.833,150.667 156,151.5C 155.585,149.709 154.585,148.376 153,147.5C 153.565,150.404 154.065,153.404 154.5,156.5 Z"/></g>
<g><path style="opacity:0.902" fill="#cac8d3" d="M 257.5,64.5 C 258.251,63.4265 259.251,63.2599 260.5,64C 267.658,67.4117 274.658,71.0784 281.5,75C 281.833,76 282.167,77 282.5,78C 283.833,78 285.167,78 286.5,78C 291.328,81.5814 296.328,84.9148 301.5,88C 301.381,89.2812 301.881,90.4479 303,91.5C 303.718,90.5494 304.551,90.3828 305.5,91C 305.133,92.7566 305.966,94.2566 308,95.5C 308.718,94.5494 309.551,94.3828 310.5,95C 310.133,96.7566 310.966,98.2566 313,99.5C 313.718,98.5494 314.551,98.3828 315.5,99C 315.507,101.119 316.674,102.953 319,104.5C 321.291,103.689 323.125,104.523 324.5,107C 324.167,107.333 323.833,107.667 323.5,108C 333.045,117.184 341.545,126.017 349,134.5C 349.667,133.167 350.333,133.167 351,134.5C 351.617,135.449 351.451,136.282 350.5,137C 352.549,139.593 354.715,142.093 357,144.5C 362.611,152.835 368.777,161.835 375.5,171.5C 376.41,174.992 378.076,177.992 380.5,180.5C 384.776,190.052 388.776,199.719 392.5,209.5C 392.851,211.869 393.018,214.203 393,216.5C 392.617,215.944 392.117,215.611 391.5,215.5C 391.657,214.127 391.49,212.793 391,211.5C 386.185,202.565 381.519,193.565 377,184.5C 376.333,181.833 375.667,179.167 375,176.5C 366.036,161.148 355.702,146.481 344,132.5C 332.157,119.991 319.657,108.158 306.5,97C 299,92.0822 291.333,87.4155 283.5,83C 282.833,82 282.167,81 281.5,80C 273.93,76.7672 266.596,73.2672 259.5,69.5C 258.281,68.3539 256.948,67.3539 255.5,66.5C 255.833,66.1667 256.167,65.8333 256.5,65.5C 258.979,67.0761 261.646,68.0761 264.5,68.5C 265.833,68.1667 265.833,67.8333 264.5,67.5C 264.167,67.5 263.833,67.5 263.5,67.5C 262.833,67.5 262.5,67.1667 262.5,66.5C 262.167,66.5 261.833,66.5 261.5,66.5C 260.833,66.5 260.5,66.1667 260.5,65.5C 260.167,65.5 259.833,65.5 259.5,65.5C 258.833,65.5 258.5,65.1667 258.5,64.5C 258.167,64.5 257.833,64.5 257.5,64.5 Z"/></g>
<g><path style="opacity:1" fill="#33364a" d="M 371.5,259.5 C 370.574,249.334 368.741,239.334 366,229.5C 352.68,187.034 329.18,151.367 295.5,122.5C 294.71,121.206 293.71,120.039 292.5,119C 295.098,119.126 297.431,120.126 299.5,122C 337.203,151.545 361.703,189.711 373,236.5C 375.698,249.458 376.032,262.458 374,275.5C 373.667,274.5 373.333,273.5 373,272.5C 372.825,267.981 372.325,263.647 371.5,259.5 Z"/></g>
<g><path style="opacity:1" fill="#8786a0" d="M 189.5,79.5 C 183.109,79.0627 177.109,80.0627 171.5,82.5C 166.331,82.999 161.664,84.6657 157.5,87.5C 152.524,88.4168 147.858,90.2501 143.5,93C 136.417,99.0793 129.583,105.579 123,112.5C 112.608,125.753 106.108,140.753 103.5,157.5C 101.853,168.092 101.186,178.759 101.5,189.5C 100.345,182.345 100.178,175.012 101,167.5C 101.55,157.662 102.883,147.995 105,138.5C 99.3099,151.858 96.8099,165.858 97.5,180.5C 97.5519,193.022 99.0519,205.355 102,217.5C 106.668,229.512 111.335,241.512 116,253.5C 120.178,259.979 123.845,266.646 127,273.5C 132.162,278.515 136.329,284.182 139.5,290.5C 134.76,287.251 131.26,282.918 129,277.5C 125.097,273.984 121.43,270.318 118,266.5C 110.905,254.04 105.071,241.04 100.5,227.5C 101.097,227.265 101.43,226.765 101.5,226C 100.094,221.423 99.0943,216.756 98.5,212C 97.9915,210.831 97.1581,209.998 96,209.5C 93.4751,194.588 92.4751,179.588 93,164.5C 94.5481,140.972 103.048,120.472 118.5,103C 120.5,102.333 122.5,101.667 124.5,101C 143.047,84.1753 165.047,76.5086 190.5,78C 189.944,78.3826 189.611,78.8826 189.5,79.5 Z"/></g>
<g><path style="opacity:1" fill="#100f12" d="M 126.5,128.5 C 125.248,130.001 124.248,131.668 123.5,133.5C 115.697,144.566 111.031,156.899 109.5,170.5C 105.568,203.172 111.902,233.838 128.5,262.5C 137.477,280.1 149.144,295.767 163.5,309.5C 170.574,316.539 178.241,322.872 186.5,328.5C 217.687,352.944 253.021,362.444 292.5,357C 303.189,354.276 313.189,350.11 322.5,344.5C 321.284,346.451 319.618,347.951 317.5,349C 312.31,351.427 307.31,354.094 302.5,357C 294.399,358.974 286.732,361.808 279.5,365.5C 266.145,366.293 253.145,364.626 240.5,360.5C 239.791,359.596 238.791,359.263 237.5,359.5C 170.34,333.838 126.507,286.504 106,217.5C 104.261,208.155 102.761,198.822 101.5,189.5C 101.186,178.759 101.853,168.092 103.5,157.5C 109.878,149.114 116.045,140.447 122,131.5C 123.333,130.167 124.667,128.833 126,127.5C 126.399,127.728 126.565,128.062 126.5,128.5 Z"/></g>
<g><path style="opacity:0.009" fill="#000000" d="M 44.5,149.5 C 45.5735,150.251 45.7401,151.251 45,152.5C 44.5172,151.552 44.3505,150.552 44.5,149.5 Z"/></g>
<g><path style="opacity:1" fill="#382e30" d="M 157.5,87.5 C 139.457,96.5318 125.124,109.865 114.5,127.5C 114.624,128.107 114.957,128.44 115.5,128.5C 111.869,133.753 109.369,139.419 108,145.5C 114.924,133.742 124.091,124.075 135.5,116.5C 138.167,115.167 140.833,113.833 143.5,112.5C 142.833,113.5 142.167,114.5 141.5,115.5C 135.583,118.749 130.583,123.082 126.5,128.5C 126.565,128.062 126.399,127.728 126,127.5C 124.667,128.833 123.333,130.167 122,131.5C 116.045,140.447 109.878,149.114 103.5,157.5C 106.108,140.753 112.608,125.753 123,112.5C 129.583,105.579 136.417,99.0793 143.5,93C 147.858,90.2501 152.524,88.4168 157.5,87.5 Z"/></g>
<g><path style="opacity:1" fill="#81d8a9" d="M 298.5,149.5 C 300.784,150.677 301.118,152.344 299.5,154.5C 293.338,166.162 286.671,177.496 279.5,188.5C 275.936,189.423 272.269,189.756 268.5,189.5C 267.448,189.649 266.448,189.483 265.5,189C 267.5,188.667 269.5,188.333 271.5,188C 270.584,187.626 269.75,187.126 269,186.5C 265.424,177.348 262.424,168.015 260,158.5C 259.193,156.423 258.026,154.589 256.5,153C 258.119,152.764 259.119,151.931 259.5,150.5C 272.47,149.577 285.47,149.244 298.5,149.5 Z"/></g>
<g><path style="opacity:1" fill="#7cd2b0" d="M 259.5,150.5 C 259.119,151.931 258.119,152.764 256.5,153C 258.026,154.589 259.193,156.423 260,158.5C 262.424,168.015 265.424,177.348 269,186.5C 269.75,187.126 270.584,187.626 271.5,188C 269.5,188.333 267.5,188.667 265.5,189C 266.448,189.483 267.448,189.649 268.5,189.5C 268.5,189.833 268.5,190.167 268.5,190.5C 261.167,190.5 253.833,190.5 246.5,190.5C 247.952,189.698 249.618,189.198 251.5,189C 247.88,189.148 245.38,187.648 244,184.5C 241.085,174.759 237.585,164.926 233.5,155C 234.833,154.333 236.167,153.667 237.5,153C 236.944,152.617 236.611,152.117 236.5,151.5C 244.142,150.737 251.809,150.403 259.5,150.5 Z"/></g>
<g><path style="opacity:1" fill="#70bdbd" d="M 211.5,152.5 C 209.708,153.309 207.708,153.809 205.5,154C 207.421,154.36 209.088,155.194 210.5,156.5C 210.291,157.086 209.957,157.586 209.5,158C 211.65,163.206 213.984,168.372 216.5,173.5C 216.291,174.086 215.957,174.586 215.5,175C 218.069,179.875 219.736,185.041 220.5,190.5C 222.5,190.833 224.5,191.167 226.5,191.5C 219.687,192.491 212.687,192.825 205.5,192.5C 203.473,192.662 201.473,192.495 199.5,192C 195.653,180.706 191.653,169.039 187.5,157C 188.337,155.989 188.67,154.822 188.5,153.5C 196.17,153.222 203.836,152.889 211.5,152.5 Z"/></g>
<g><path style="opacity:1" fill="#75c8b9" d="M 234.5,151.5 C 235.167,151.5 235.833,151.5 236.5,151.5C 236.611,152.117 236.944,152.617 237.5,153C 236.167,153.667 234.833,154.333 233.5,155C 237.585,164.926 241.085,174.759 244,184.5C 245.38,187.648 247.88,189.148 251.5,189C 249.618,189.198 247.952,189.698 246.5,190.5C 239.922,191.46 233.255,191.793 226.5,191.5C 224.5,191.167 222.5,190.833 220.5,190.5C 219.736,185.041 218.069,179.875 215.5,175C 215.957,174.586 216.291,174.086 216.5,173.5C 213.984,168.372 211.65,163.206 209.5,158C 209.957,157.586 210.291,157.086 210.5,156.5C 209.088,155.194 207.421,154.36 205.5,154C 207.708,153.809 209.708,153.309 211.5,152.5C 219.175,152.32 226.842,151.986 234.5,151.5 Z"/></g>
<g><path style="opacity:1" fill="#669ac4" d="M 169.5,154.5 C 169.082,155.222 168.416,155.722 167.5,156C 170.014,164.966 172.848,174.133 176,183.5C 176.937,186.656 178.437,189.489 180.5,192C 180.167,192.333 179.833,192.667 179.5,193C 181.81,193.497 184.143,193.663 186.5,193.5C 185.081,194.451 183.415,194.784 181.5,194.5C 177.167,194.5 172.833,194.5 168.5,194.5C 168.11,191.31 166.777,188.643 164.5,186.5C 161.517,176.569 158.851,166.569 156.5,156.5C 160.545,154.823 164.878,154.156 169.5,154.5 Z"/></g>
<g><path style="opacity:1" fill="#6baec1" d="M 179.5,153.5 C 182.5,153.5 185.5,153.5 188.5,153.5C 188.67,154.822 188.337,155.989 187.5,157C 191.653,169.039 195.653,180.706 199.5,192C 201.473,192.495 203.473,192.662 205.5,192.5C 199.355,193.49 193.022,193.823 186.5,193.5C 184.143,193.663 181.81,193.497 179.5,193C 179.833,192.667 180.167,192.333 180.5,192C 178.437,189.489 176.937,186.656 176,183.5C 172.848,174.133 170.014,164.966 167.5,156C 168.416,155.722 169.082,155.222 169.5,154.5C 173.042,154.813 176.375,154.479 179.5,153.5 Z"/></g>
<g><path style="opacity:0.958" fill="#160f0e" d="M 170.5,49.5 C 170.5,49.8333 170.5,50.1667 170.5,50.5C 170.167,50.5 169.833,50.5 169.5,50.5C 159.389,51.4453 149.722,53.7787 140.5,57.5C 135.039,59.0667 130.039,61.4 125.5,64.5C 119.727,66.8882 114.393,70.0548 109.5,74C 98.7866,83.0359 89.9533,93.5359 83,105.5C 77.2655,117.389 71.9322,129.389 67,141.5C 62.8112,147.877 59.1446,154.544 56,161.5C 55.3333,164.167 55.3333,166.833 56,169.5C 57.9606,172.463 60.294,175.129 63,177.5C 65.1206,181.88 67.1206,186.213 69,190.5C 70.5182,200.57 72.3515,210.57 74.5,220.5C 74.5,220.833 74.5,221.167 74.5,221.5C 72.5045,217.516 70.0045,213.849 67,210.5C 61.2579,210.696 55.7579,210.696 50.5,210.5C 49.5224,210.977 48.6891,211.643 48,212.5C 45.5244,209.453 43.5244,206.12 42,202.5C 41.6174,203.056 41.1174,203.389 40.5,203.5C 37.8562,160.183 51.5228,124.349 81.5,96C 80.9394,94.4345 81.6061,93.1011 83.5,92C 84.4491,91.3828 85.2825,91.5494 86,92.5C 87.8333,90.6667 89.6667,88.8333 91.5,87C 90.5419,85.8525 90.8753,84.8525 92.5,84C 93.4491,83.3828 94.2825,83.5494 95,84.5C 97.6309,82.635 99.1309,80.4684 99.5,78C 100.449,77.3828 101.282,77.5494 102,78.5C 104.034,77.2566 104.867,75.7566 104.5,74C 105.449,73.3828 106.282,73.5494 107,74.5C 108.119,73.4479 108.619,72.2812 108.5,71C 109.449,70.3828 110.282,70.5494 111,71.5C 112.119,70.4479 112.619,69.2812 112.5,68C 117.001,65.5841 121.334,62.9175 125.5,60C 129.426,60.5706 133.093,59.5706 136.5,57C 135.833,56.6667 135.167,56.3333 134.5,56C 139.239,56.1055 143.906,55.1055 148.5,53C 147.5,52.6667 146.5,52.3333 145.5,52C 148.595,50.2662 151.761,50.0996 155,51.5C 160.082,50.1357 165.248,49.469 170.5,49.5 Z"/></g>
<g><path style="opacity:1" fill="#412936" d="M 150.5,159.5 C 151.167,159.5 151.5,159.833 151.5,160.5C 145.51,170.981 140.176,181.814 135.5,193C 135.585,194.107 135.919,195.107 136.5,196C 139.482,196.498 142.482,196.665 145.5,196.5C 141.354,197.647 137.02,197.814 132.5,197C 131.594,195.301 131.261,193.467 131.5,191.5C 134.07,186.689 136.404,181.689 138.5,176.5C 141.492,172.524 143.992,168.191 146,163.5C 147.667,162.267 149.167,160.933 150.5,159.5 Z"/></g>
<g><path style="opacity:1" fill="#716474" d="M 299.5,154.5 C 305.054,160.557 310.888,166.557 317,172.5C 323.326,180.484 329.159,188.817 334.5,197.5C 334.333,197.833 334.167,198.167 334,198.5C 332.304,196.434 330.471,194.934 328.5,194C 331.216,197.271 333.549,200.771 335.5,204.5C 333.697,202.265 331.364,201.099 328.5,201C 331.917,204.671 334.083,208.837 335,213.5C 333.422,210.468 331.255,207.968 328.5,206C 326.299,205.175 324.466,205.675 323,207.5C 322.387,201.694 320.053,201.027 316,205.5C 313.915,204.353 312.415,205.02 311.5,207.5C 310.702,205.922 310.202,204.256 310,202.5C 307.278,207.027 304.444,211.36 301.5,215.5C 297.657,212.497 293.657,209.664 289.5,207C 286.518,206.502 283.518,206.335 280.5,206.5C 278.5,206.5 276.5,206.5 274.5,206.5C 271.972,205.834 269.306,205.168 266.5,204.5C 270.788,201.38 274.621,197.714 278,193.5C 278.608,191.846 279.108,190.179 279.5,188.5C 286.671,177.496 293.338,166.162 299.5,154.5 Z"/></g>
<g><path style="opacity:0.008" fill="#fefffe" d="M 375.5,170.5 C 376.833,171.167 376.833,171.167 375.5,170.5 Z"/></g>
<g><path style="opacity:1" fill="#6c667f" d="M 150.5,159.5 C 149.167,160.933 147.667,162.267 146,163.5C 143.992,168.191 141.492,172.524 138.5,176.5C 132.596,183.61 128.263,191.776 125.5,201C 125.78,202.395 126.447,203.562 127.5,204.5C 146.525,205.02 165.525,206.02 184.5,207.5C 185.446,207.013 186.446,206.68 187.5,206.5C 193.25,207.258 198.917,208.258 204.5,209.5C 204.5,209.833 204.5,210.167 204.5,210.5C 196.648,210.175 188.982,210.508 181.5,211.5C 175.642,211.178 169.975,211.511 164.5,212.5C 159.156,212.334 153.823,212.501 148.5,213C 145.766,213.998 144.099,215.832 143.5,218.5C 142.833,218.167 142.167,217.833 141.5,217.5C 140.5,218.167 139.5,218.833 138.5,219.5C 137.599,220.29 136.932,221.29 136.5,222.5C 133.236,223.927 130.736,226.261 129,229.5C 128.713,231.891 128.213,234.224 127.5,236.5C 126.879,238.998 127.545,241.332 129.5,243.5C 129.291,244.086 128.957,244.586 128.5,245C 133.375,248.877 133.708,252.544 129.5,256C 130.759,256.923 132.092,257.757 133.5,258.5C 132.609,259.59 131.609,259.59 130.5,258.5C 129.289,259.274 129.289,260.107 130.5,261C 129.956,261.717 129.289,262.217 128.5,262.5C 111.902,233.838 105.568,203.172 109.5,170.5C 108.862,174.986 110.196,178.653 113.5,181.5C 114.688,180.16 116.188,179.493 118,179.5C 120.154,180.252 122.32,180.419 124.5,180C 125.833,178.333 127.167,176.667 128.5,175C 133.218,171.125 138.051,167.291 143,163.5C 143.483,162.552 143.649,161.552 143.5,160.5C 145.806,160.007 148.139,159.674 150.5,159.5 Z"/></g>
<g><path style="opacity:1" fill="#c1a0cc" d="M 154.5,156.5 C 155.167,156.5 155.833,156.5 156.5,156.5C 158.851,166.569 161.517,176.569 164.5,186.5C 166.777,188.643 168.11,191.31 168.5,194.5C 160.868,195.442 153.201,196.108 145.5,196.5C 142.482,196.665 139.482,196.498 136.5,196C 135.919,195.107 135.585,194.107 135.5,193C 140.176,181.814 145.51,170.981 151.5,160.5C 152.488,159.205 153.488,157.872 154.5,156.5 Z"/></g>
<g><path style="opacity:0.012" fill="#a9aaa9" d="M 380.5,179.5 C 381.833,180.167 381.833,180.167 380.5,179.5 Z"/></g>
<g><path style="opacity:1" fill="#282c3d" d="M 361.5,282.5 C 360.648,274.987 359.815,267.32 359,259.5C 358.826,264.351 358.326,269.018 357.5,273.5C 357.5,268.833 357.5,264.167 357.5,259.5C 353.534,224.755 340.701,193.755 319,166.5C 306.509,151.69 292.675,138.357 277.5,126.5C 276.537,125.637 276.537,124.97 277.5,124.5C 278.5,125 279.5,125.5 280.5,126C 305.343,145.171 325.509,168.337 341,195.5C 356.048,222.577 362.882,251.577 361.5,282.5 Z"/></g>
<g><path style="opacity:1" fill="#342c34" d="M 125.5,64.5 C 116.013,70.4726 107.513,77.8059 100,86.5C 98.9242,89.6484 97.5909,92.6484 96,95.5C 93.0624,99.7891 90.0624,104.122 87,108.5C 82.3349,119.496 78.6683,130.829 76,142.5C 72.9855,168.473 74.6522,194.139 81,219.5C 84.8534,229.39 88.5201,239.39 92,249.5C 97.0328,257.298 101.533,265.298 105.5,273.5C 128.223,314.561 159.89,347.227 200.5,371.5C 212.571,377.628 224.904,382.961 237.5,387.5C 234.42,387.252 231.42,386.586 228.5,385.5C 227.311,385.756 226.144,386.089 225,386.5C 222,385.167 219,383.833 216,382.5C 215.235,382.57 214.735,382.903 214.5,383.5C 193.617,373.903 174.617,361.569 157.5,346.5C 159.646,346.304 159.812,345.304 158,343.5C 128.955,316.729 106.289,285.396 90,249.5C 90.528,253.426 91.6947,257.259 93.5,261C 93.3893,262.722 92.8893,262.888 92,261.5C 85.4207,249.093 80.4207,236.093 77,222.5C 76.2917,221.619 75.4584,220.953 74.5,220.5C 72.3515,210.57 70.5182,200.57 69,190.5C 67.1206,186.213 65.1206,181.88 63,177.5C 60.294,175.129 57.9606,172.463 56,169.5C 55.3333,166.833 55.3333,164.167 56,161.5C 59.1446,154.544 62.8112,147.877 67,141.5C 71.9322,129.389 77.2655,117.389 83,105.5C 89.9533,93.5359 98.7866,83.0359 109.5,74C 114.393,70.0548 119.727,66.8882 125.5,64.5 Z"/></g>
<g><path style="opacity:1" fill="#605565" d="M 140.5,57.5 C 135.626,60.1068 131.292,63.4401 127.5,67.5C 123.628,69.1931 120.128,71.5264 117,74.5C 112.99,79.3412 108.823,84.0078 104.5,88.5C 103.441,90.5336 102.441,92.5336 101.5,94.5C 100.094,94.9731 99.427,95.9731 99.5,97.5C 86.7191,112.132 80.2191,129.465 80,149.5C 78.3909,172.398 79.7243,195.065 84,217.5C 84.6667,218.167 85.3333,218.833 86,219.5C 89.5428,229.794 92.8762,240.128 96,250.5C 98.8152,255.478 101.482,260.478 104,265.5C 104.822,268.117 105.322,270.784 105.5,273.5C 101.533,265.298 97.0328,257.298 92,249.5C 88.5201,239.39 84.8534,229.39 81,219.5C 74.6522,194.139 72.9855,168.473 76,142.5C 78.6683,130.829 82.3349,119.496 87,108.5C 90.0624,104.122 93.0624,99.7891 96,95.5C 97.5909,92.6484 98.9242,89.6484 100,86.5C 107.513,77.8059 116.013,70.4726 125.5,64.5C 130.039,61.4 135.039,59.0667 140.5,57.5 Z"/></g>
<g><path style="opacity:0.997" fill="#0b0909" d="M 74.5,221.5 C 83.4997,251.834 97.4997,279.501 116.5,304.5C 115.448,304.649 114.448,304.483 113.5,304C 112.12,302.075 110.62,300.241 109,298.5C 101.587,287.558 94.7537,276.225 88.5,264.5C 87.5224,264.023 86.6891,263.357 86,262.5C 84.5421,263.747 83.0421,263.747 81.5,262.5C 80.7769,264.164 81.1103,265.831 82.5,267.5C 80.8333,268.667 79.1667,269.833 77.5,271C 78.7155,273.096 79.5488,272.929 80,270.5C 80.6667,271.833 81.3333,271.833 82,270.5C 82.5,271 83,271.5 83.5,272C 81.1532,272.846 79.3199,274.346 78,276.5C 77,276.5 76,276.5 75,276.5C 74.8898,278.848 73.7231,280.348 71.5,281C 72.3279,281.915 73.3279,282.581 74.5,283C 71.3246,284.577 70.9912,286.41 73.5,288.5C 73.4336,291.034 73.4336,293.534 73.5,296C 79.4186,309.66 87.5853,322.16 98,333.5C 98.6172,334.449 98.4506,335.282 97.5,336C 98.5822,337.33 99.2488,338.83 99.5,340.5C 98.3115,339.952 97.1448,339.619 96,339.5C 95.3828,338.551 95.5494,337.718 96.5,337C 94.2674,334.004 91.9341,331.171 89.5,328.5C 89.5,327.833 89.1667,327.5 88.5,327.5C 76.838,311.498 66.838,294.498 58.5,276.5C 56.4027,270.651 54.0694,264.985 51.5,259.5C 45.7824,241.245 42.1157,222.578 40.5,203.5C 41.1174,203.389 41.6174,203.056 42,202.5C 43.5244,206.12 45.5244,209.453 48,212.5C 48.6891,211.643 49.5224,210.977 50.5,210.5C 55.7579,210.696 61.2579,210.696 67,210.5C 70.0045,213.849 72.5045,217.516 74.5,221.5 Z"/></g>
<g><path style="opacity:1" fill="#5d5669" d="M 138.5,176.5 C 136.404,181.689 134.07,186.689 131.5,191.5C 129.171,194.828 129.171,198.328 131.5,202C 162.74,203.122 193.74,201.955 224.5,198.5C 238.529,198.219 252.529,197.386 266.5,196C 269.938,195.08 272.938,193.413 275.5,191C 273.19,190.503 270.857,190.337 268.5,190.5C 268.5,190.167 268.5,189.833 268.5,189.5C 272.269,189.756 275.936,189.423 279.5,188.5C 279.108,190.179 278.608,191.846 278,193.5C 274.621,197.714 270.788,201.38 266.5,204.5C 269.306,205.168 271.972,205.834 274.5,206.5C 268.811,206.532 263.145,206.866 257.5,207.5C 252.786,207.353 248.119,207.686 243.5,208.5C 240.5,208.5 237.5,208.5 234.5,208.5C 224.514,209.166 214.514,209.499 204.5,209.5C 198.917,208.258 193.25,207.258 187.5,206.5C 186.446,206.68 185.446,207.013 184.5,207.5C 165.525,206.02 146.525,205.02 127.5,204.5C 126.447,203.562 125.78,202.395 125.5,201C 128.263,191.776 132.596,183.61 138.5,176.5 Z"/></g>
<g><path style="opacity:1" fill="#3f425e" d="M 131.5,191.5 C 131.261,193.467 131.594,195.301 132.5,197C 137.02,197.814 141.354,197.647 145.5,196.5C 153.201,196.108 160.868,195.442 168.5,194.5C 172.833,194.5 177.167,194.5 181.5,194.5C 183.631,195.314 185.964,195.814 188.5,196C 187.167,196.333 185.833,196.667 184.5,197C 197.825,197.769 211.159,198.269 224.5,198.5C 193.74,201.955 162.74,203.122 131.5,202C 129.171,198.328 129.171,194.828 131.5,191.5 Z"/></g>
<g><path style="opacity:1" fill="#2c3441" d="M 246.5,190.5 C 253.833,190.5 261.167,190.5 268.5,190.5C 270.857,190.337 273.19,190.503 275.5,191C 272.938,193.413 269.938,195.08 266.5,196C 252.529,197.386 238.529,198.219 224.5,198.5C 211.159,198.269 197.825,197.769 184.5,197C 185.833,196.667 187.167,196.333 188.5,196C 185.964,195.814 183.631,195.314 181.5,194.5C 183.415,194.784 185.081,194.451 186.5,193.5C 193.022,193.823 199.355,193.49 205.5,192.5C 212.687,192.825 219.687,192.491 226.5,191.5C 233.255,191.793 239.922,191.46 246.5,190.5 Z"/></g>
<g><path style="opacity:1" fill="#342d35" d="M 237.5,87.5 C 241.15,87.3584 244.65,88.0251 248,89.5C 256.75,92.8102 265.25,96.6435 273.5,101C 281.5,106.333 289.5,111.667 297.5,117C 301.005,120.522 305.005,123.189 309.5,125C 339.216,153.624 360.383,187.457 373,226.5C 378.233,247.261 379.566,268.261 377,289.5C 376.155,291.611 375.322,293.611 374.5,295.5C 371.062,302.962 367.895,310.629 365,318.5C 360.391,322.362 356.724,327.029 354,332.5C 352.629,334.041 351.129,335.375 349.5,336.5C 366.276,313.758 373.609,288.091 371.5,259.5C 372.325,263.647 372.825,267.981 373,272.5C 373.333,273.5 373.667,274.5 374,275.5C 376.032,262.458 375.698,249.458 373,236.5C 361.703,189.711 337.203,151.545 299.5,122C 297.431,120.126 295.098,119.126 292.5,119C 293.71,120.039 294.71,121.206 295.5,122.5C 288.398,117.913 281.398,113.079 274.5,108C 265.823,103.492 257.156,99.3253 248.5,95.5C 249.552,95.6495 250.552,95.4828 251.5,95C 246.58,92.8043 241.58,90.8043 236.5,89C 235.288,87.8932 235.621,87.3932 237.5,87.5 Z"/></g>
<g><path style="opacity:1" fill="#73c3b9" d="M 274.5,206.5 C 276.5,206.5 278.5,206.5 280.5,206.5C 277.359,207.321 274.025,207.821 270.5,208C 271.793,208.49 273.127,208.657 274.5,208.5C 278.192,219.773 281.692,230.773 285,241.5C 286.171,242.893 287.671,243.727 289.5,244C 289.167,244.333 288.833,244.667 288.5,245C 290.81,245.497 293.143,245.663 295.5,245.5C 291.366,246.485 287.032,246.818 282.5,246.5C 278.486,246.666 274.486,246.499 270.5,246C 270.833,245.667 271.167,245.333 271.5,245C 270.376,244.751 269.376,244.251 268.5,243.5C 264.296,232.884 260.296,222.217 256.5,211.5C 256.709,210.914 257.043,210.414 257.5,210C 255.167,209.667 252.833,209.333 250.5,209C 253.036,208.814 255.369,208.314 257.5,207.5C 263.145,206.866 268.811,206.532 274.5,206.5 Z"/></g>
<g><path style="opacity:1" fill="#6cb4bd" d="M 257.5,207.5 C 255.369,208.314 253.036,208.814 250.5,209C 252.833,209.333 255.167,209.667 257.5,210C 257.043,210.414 256.709,210.914 256.5,211.5C 260.296,222.217 264.296,232.884 268.5,243.5C 269.376,244.251 270.376,244.751 271.5,245C 271.167,245.333 270.833,245.667 270.5,246C 274.486,246.499 278.486,246.666 282.5,246.5C 275.687,247.491 268.687,247.825 261.5,247.5C 258.504,244.355 256.838,240.855 256.5,237C 252.899,228.802 250.066,220.635 248,212.5C 246.333,211.267 244.833,209.933 243.5,208.5C 248.119,207.686 252.786,207.353 257.5,207.5 Z"/></g>
<g><path style="opacity:1" fill="#66a0c3" d="M 234.5,208.5 C 237.5,208.5 240.5,208.5 243.5,208.5C 244.833,209.933 246.333,211.267 248,212.5C 250.066,220.635 252.899,228.802 256.5,237C 256.838,240.855 258.504,244.355 261.5,247.5C 258.287,247.19 255.287,247.523 252.5,248.5C 250.5,248.5 248.5,248.5 246.5,248.5C 242.794,245.458 240.294,241.458 239,236.5C 235.976,227.602 233.476,218.602 231.5,209.5C 232.791,209.737 233.791,209.404 234.5,208.5 Z"/></g>
<g><path style="opacity:1" fill="#7f98c8" d="M 234.5,208.5 C 233.791,209.404 232.791,209.737 231.5,209.5C 233.476,218.602 235.976,227.602 239,236.5C 240.294,241.458 242.794,245.458 246.5,248.5C 237.838,248.928 229.171,249.262 220.5,249.5C 215.735,237.039 211.069,224.539 206.5,212C 207.5,211.667 208.5,211.333 209.5,211C 207.866,210.506 206.199,210.34 204.5,210.5C 204.5,210.167 204.5,209.833 204.5,209.5C 214.514,209.499 224.514,209.166 234.5,208.5 Z"/></g>
<g><path style="opacity:1" fill="#a19ecf" d="M 204.5,210.5 C 206.199,210.34 207.866,210.506 209.5,211C 208.5,211.333 207.5,211.667 206.5,212C 211.069,224.539 215.735,237.039 220.5,249.5C 212.2,250.371 203.867,250.705 195.5,250.5C 194.199,249.36 193.032,248.027 192,246.5C 187.78,235.01 184.28,223.343 181.5,211.5C 188.982,210.508 196.648,210.175 204.5,210.5 Z"/></g>
<g><path style="opacity:1" fill="#dc9ad6" d="M 164.5,212.5 C 167.518,212.335 170.518,212.502 173.5,213C 172.833,213.333 172.167,213.667 171.5,214C 175.924,222.703 179.424,231.87 182,241.5C 183.373,244.412 184.873,247.246 186.5,250C 185.552,250.483 184.552,250.649 183.5,250.5C 169.397,240.784 156.064,230.117 143.5,218.5C 144.099,215.832 145.766,213.998 148.5,213C 153.823,212.501 159.156,212.334 164.5,212.5 Z"/></g>
<g><path style="opacity:1" fill="#7cd2b0" d="M 280.5,206.5 C 283.518,206.335 286.518,206.502 289.5,207C 293.657,209.664 297.657,212.497 301.5,215.5C 310.839,223.268 320.339,230.934 330,238.5C 329.573,241.121 328.073,243.121 325.5,244.5C 315.509,245.055 305.509,245.388 295.5,245.5C 293.143,245.663 290.81,245.497 288.5,245C 288.833,244.667 289.167,244.333 289.5,244C 287.671,243.727 286.171,242.893 285,241.5C 281.692,230.773 278.192,219.773 274.5,208.5C 273.127,208.657 271.793,208.49 270.5,208C 274.025,207.821 277.359,207.321 280.5,206.5 Z"/></g>
<g><path style="opacity:1" fill="#75718a" d="M 100.5,227.5 C 105.071,241.04 110.905,254.04 118,266.5C 121.43,270.318 125.097,273.984 129,277.5C 131.26,282.918 134.76,287.251 139.5,290.5C 160.468,316.312 185.468,337.146 214.5,353C 220.679,355.727 227.013,358.06 233.5,360C 235.066,360.765 236.399,360.598 237.5,359.5C 238.791,359.263 239.791,359.596 240.5,360.5C 238.663,360.639 238.33,361.306 239.5,362.5C 263.239,369.285 287.239,370.285 311.5,365.5C 306.341,367.789 301.008,369.455 295.5,370.5C 262.005,374.197 230.671,367.697 201.5,351C 161.17,327.448 128.67,295.948 104,256.5C 100.393,245.678 96.393,235.012 92,224.5C 87.4129,207.526 83.9129,190.359 81.5,173C 83.5355,170.701 83.8688,168.201 82.5,165.5C 83.828,156.209 84.9947,146.876 86,137.5C 89.4351,128.098 92.1017,118.432 94,108.5C 96.3716,105.09 98.2049,101.423 99.5,97.5C 99.427,95.9731 100.094,94.9731 101.5,94.5C 103.65,92.2404 105.817,89.9071 108,87.5C 108.167,88 108.333,88.5 108.5,89C 105.569,96.2182 103.235,103.552 101.5,111C 101.957,111.414 102.291,111.914 102.5,112.5C 101.716,114.029 100.716,115.696 99.5,117.5C 100.571,119.325 99.9042,120.492 97.5,121C 98.0585,121.725 98.3918,122.558 98.5,123.5C 96.5694,130.727 94.5694,137.893 92.5,145C 92.534,149.197 92.534,153.364 92.5,157.5C 88.2591,181.577 90.9258,204.91 100.5,227.5 Z"/></g>
<g><path style="opacity:1" fill="#c49ed2" d="M 164.5,212.5 C 169.975,211.511 175.642,211.178 181.5,211.5C 184.28,223.343 187.78,235.01 192,246.5C 193.032,248.027 194.199,249.36 195.5,250.5C 191.352,251.644 187.352,251.644 183.5,250.5C 184.552,250.649 185.552,250.483 186.5,250C 184.873,247.246 183.373,244.412 182,241.5C 179.424,231.87 175.924,222.703 171.5,214C 172.167,213.667 172.833,213.333 173.5,213C 170.518,212.502 167.518,212.335 164.5,212.5 Z"/></g>
<g><path style="opacity:1" fill="#65617a" d="M 136.5,222.5 C 135.431,225.408 135.264,228.408 136,231.5C 145.836,241.669 156.003,251.503 166.5,261C 169.089,262.197 171.756,263.197 174.5,264C 195.452,263.966 215.952,264.132 236,264.5C 261.246,260.125 286.746,255.959 312.5,252C 315.572,251.422 318.239,250.255 320.5,248.5C 321.959,248.567 323.292,248.234 324.5,247.5C 323.409,250.428 321.409,252.594 318.5,254C 311.294,257.672 303.961,260.839 296.5,263.5C 278.324,264.108 260.324,265.108 242.5,266.5C 238.298,266.183 234.298,266.517 230.5,267.5C 222.981,267.175 215.648,267.508 208.5,268.5C 203.821,268.334 199.155,268.501 194.5,269C 192.76,270.517 191.094,272.017 189.5,273.5C 189.565,273.062 189.399,272.728 189,272.5C 185.447,275.308 182.613,278.641 180.5,282.5C 179.504,282.414 178.671,282.748 178,283.5C 176.956,285.715 176.29,288.048 176,290.5C 171.607,296.619 168.274,303.286 166,310.5C 165.329,309.748 164.496,309.414 163.5,309.5C 149.144,295.767 137.477,280.1 128.5,262.5C 129.289,262.217 129.956,261.717 130.5,261C 129.289,260.107 129.289,259.274 130.5,258.5C 131.609,259.59 132.609,259.59 133.5,258.5C 132.092,257.757 130.759,256.923 129.5,256C 133.708,252.544 133.375,248.877 128.5,245C 128.957,244.586 129.291,244.086 129.5,243.5C 127.545,241.332 126.879,238.998 127.5,236.5C 128.213,234.224 128.713,231.891 129,229.5C 130.736,226.261 133.236,223.927 136.5,222.5 Z"/></g>
<g><path style="opacity:0.012" fill="#6e6994" d="M 401.5,231.5 C 401.167,231.5 400.833,231.5 400.5,231.5C 400.833,227.5 401.167,227.5 401.5,231.5 Z"/></g>
<g><path style="opacity:1" fill="#585267" d="M 277.5,126.5 C 292.675,138.357 306.509,151.69 319,166.5C 340.701,193.755 353.534,224.755 357.5,259.5C 356.672,265.653 356.172,271.987 356,278.5C 355.667,271.5 355.333,264.5 355,257.5C 354.803,265.549 354.303,273.549 353.5,281.5C 353.709,282.086 354.043,282.586 354.5,283C 353.785,287.531 352.785,292.031 351.5,296.5C 351.167,296.167 350.833,295.833 350.5,295.5C 351.167,292.5 351.833,289.5 352.5,286.5C 351.5,279.996 351.5,273.829 352.5,268C 351.804,263.866 351.137,259.7 350.5,255.5C 351.813,236.998 346.813,219.998 335.5,204.5C 333.549,200.771 331.216,197.271 328.5,194C 330.471,194.934 332.304,196.434 334,198.5C 334.167,198.167 334.333,197.833 334.5,197.5C 329.159,188.817 323.326,180.484 317,172.5C 310.888,166.557 305.054,160.557 299.5,154.5C 301.118,152.344 300.784,150.677 298.5,149.5C 293.981,145.199 289.314,140.866 284.5,136.5C 281.821,134.313 278.821,132.813 275.5,132C 273.537,129.193 271.037,127.027 268,125.5C 267.667,126.167 267.333,126.833 267,127.5C 265.622,125.787 263.955,124.453 262,123.5C 261.667,124.167 261.333,124.833 261,125.5C 259.5,124 258,122.5 256.5,121C 250.83,118.167 245.497,114.834 240.5,111C 232.255,107.709 223.921,104.709 215.5,102C 216.167,101.667 216.833,101.333 217.5,101C 204.088,98.4847 190.754,97.9847 177.5,99.5C 170.885,100.648 164.385,102.315 158,104.5C 152.794,106.551 147.96,109.218 143.5,112.5C 140.833,113.833 138.167,115.167 135.5,116.5C 138.619,112.82 142.619,110.32 147.5,109C 146.269,107.817 146.269,106.651 147.5,105.5C 163.042,98.5123 179.376,95.3456 196.5,96C 185.091,95.1142 173.758,95.6142 162.5,97.5C 164.476,95.9891 166.809,95.1558 169.5,95C 181.5,94.3333 193.5,94.3333 205.5,95C 214.772,97.8196 224.106,100.32 233.5,102.5C 233.5,103.5 233.5,104.5 233.5,105.5C 249.251,110.377 263.918,117.377 277.5,126.5 Z"/></g>
<g><path style="opacity:0.012" fill="#8b8b8b" d="M 401.5,231.5 C 402.598,232.601 402.765,233.934 402,235.5C 401.51,234.207 401.343,232.873 401.5,231.5 Z"/></g>
<g><path style="opacity:0.01" fill="#000000" d="M 44.5,239.5 C 45.5735,240.251 45.7401,241.251 45,242.5C 44.5172,241.552 44.3505,240.552 44.5,239.5 Z"/></g>
<g><path style="opacity:0.008" fill="#6caab2" d="M 404.5,245.5 C 404.167,245.5 403.833,245.5 403.5,245.5C 403.833,238.833 404.167,238.833 404.5,245.5 Z"/></g>
<g><path style="opacity:0.016" fill="#687776" d="M 404.5,245.5 C 405.451,246.919 405.784,248.585 405.5,250.5C 404.549,249.081 404.216,247.415 404.5,245.5 Z"/></g>
<g><path style="opacity:0.012" fill="#4c545c" d="M 405.5,250.5 C 406.629,252.628 406.796,254.961 406,257.5C 405.503,255.19 405.337,252.857 405.5,250.5 Z"/></g>
<g><path style="opacity:1" fill="#37334f" d="M 141.5,217.5 C 142.167,217.833 142.833,218.167 143.5,218.5C 156.064,230.117 169.397,240.784 183.5,250.5C 187.352,251.644 191.352,251.644 195.5,250.5C 203.867,250.705 212.2,250.371 220.5,249.5C 229.171,249.262 237.838,248.928 246.5,248.5C 248.5,248.5 250.5,248.5 252.5,248.5C 256.846,248.334 261.179,248.501 265.5,249C 259.5,249.333 253.5,249.667 247.5,250C 245.754,250.471 244.087,251.138 242.5,252C 234.5,252.333 226.5,252.667 218.5,253C 223.47,253.886 228.47,254.552 233.5,255C 230.833,255.333 228.167,255.667 225.5,256C 215.097,256.333 204.764,256.5 194.5,256.5C 188.376,254.762 182.043,253.929 175.5,254C 171.881,250.023 167.548,247.356 162.5,246C 155.142,238.197 147.642,230.364 140,222.5C 140.134,220.811 140.634,219.144 141.5,217.5 Z"/></g>
<g><path style="opacity:1" fill="#69667f" d="M 335.5,204.5 C 346.813,219.998 351.813,236.998 350.5,255.5C 351.137,259.7 351.804,263.866 352.5,268C 351.5,273.829 351.5,279.996 352.5,286.5C 351.833,289.5 351.167,292.5 350.5,295.5C 350.833,295.833 351.167,296.167 351.5,296.5C 352.785,292.031 353.785,287.531 354.5,283C 354.043,282.586 353.709,282.086 353.5,281.5C 354.303,273.549 354.803,265.549 355,257.5C 355.333,264.5 355.667,271.5 356,278.5C 356.172,271.987 356.672,265.653 357.5,259.5C 357.5,264.167 357.5,268.833 357.5,273.5C 357.304,291.96 352.304,308.96 342.5,324.5C 342.167,324.5 341.833,324.5 341.5,324.5C 341.013,323.527 340.513,322.527 340,321.5C 339.581,322.672 338.915,323.672 338,324.5C 338.148,323.175 337.982,322.008 337.5,321C 339.589,318.484 341.256,315.651 342.5,312.5C 340.813,309.097 341.48,306.264 344.5,304C 343.365,303.251 342.365,303.417 341.5,304.5C 340.422,307.207 339.422,309.874 338.5,312.5C 337.325,312.281 336.325,312.614 335.5,313.5C 334.926,315.059 334.26,316.559 333.5,318C 331.369,318.543 329.369,319.376 327.5,320.5C 327.709,321.086 328.043,321.586 328.5,322C 327.027,322.71 326.36,323.876 326.5,325.5C 324.876,325.36 323.71,326.027 323,327.5C 322.28,325.745 321.113,324.911 319.5,325C 319.927,327.128 319.427,329.295 318,331.5C 317.395,329.519 316.395,329.185 315,330.5C 314.383,329.551 314.549,328.718 315.5,328C 314.234,327.691 313.067,327.191 312,326.5C 311.683,328.301 311.016,328.634 310,327.5C 309.5,328 309,328.5 308.5,329C 312.422,330.953 312.088,332.119 307.5,332.5C 307.617,330.516 306.95,328.85 305.5,327.5C 303.995,330.131 303.329,329.797 303.5,326.5C 305.833,326.5 308.167,326.5 310.5,326.5C 310.78,323.612 309.447,322.112 306.5,322C 308.221,320.473 310.221,319.473 312.5,319C 312.043,318.586 311.709,318.086 311.5,317.5C 315.787,311.304 319.12,304.638 321.5,297.5C 321.5,297.167 321.5,296.833 321.5,296.5C 323.405,293.696 325.071,290.696 326.5,287.5C 331.055,280.405 335.055,272.905 338.5,265C 338.355,264.228 338.022,263.561 337.5,263C 331.843,262.501 326.176,262.334 320.5,262.5C 316.731,262.244 313.064,262.577 309.5,263.5C 306.5,263.5 303.5,263.5 300.5,263.5C 299.167,263.5 297.833,263.5 296.5,263.5C 303.961,260.839 311.294,257.672 318.5,254C 321.409,252.594 323.409,250.428 324.5,247.5C 324.557,246.391 324.89,245.391 325.5,244.5C 328.073,243.121 329.573,241.121 330,238.5C 320.339,230.934 310.839,223.268 301.5,215.5C 304.444,211.36 307.278,207.027 310,202.5C 310.202,204.256 310.702,205.922 311.5,207.5C 312.415,205.02 313.915,204.353 316,205.5C 320.053,201.027 322.387,201.694 323,207.5C 324.466,205.675 326.299,205.175 328.5,206C 331.255,207.968 333.422,210.468 335,213.5C 334.083,208.837 331.917,204.671 328.5,201C 331.364,201.099 333.697,202.265 335.5,204.5 Z"/></g>
<g><path style="opacity:1" fill="#3e425a" d="M 141.5,217.5 C 140.634,219.144 140.134,220.811 140,222.5C 147.642,230.364 155.142,238.197 162.5,246C 167.548,247.356 171.881,250.023 175.5,254C 182.043,253.929 188.376,254.762 194.5,256.5C 204.764,256.5 215.097,256.333 225.5,256C 228.167,255.667 230.833,255.333 233.5,255C 228.47,254.552 223.47,253.886 218.5,253C 226.5,252.667 234.5,252.333 242.5,252C 244.087,251.138 245.754,250.471 247.5,250C 253.5,249.667 259.5,249.333 265.5,249C 261.179,248.501 256.846,248.334 252.5,248.5C 255.287,247.523 258.287,247.19 261.5,247.5C 268.687,247.825 275.687,247.491 282.5,246.5C 287.032,246.818 291.366,246.485 295.5,245.5C 305.509,245.388 315.509,245.055 325.5,244.5C 324.89,245.391 324.557,246.391 324.5,247.5C 323.292,248.234 321.959,248.567 320.5,248.5C 308.441,249.841 296.441,251.674 284.5,254C 248.871,256.766 213.205,258.433 177.5,259C 168.276,253.443 159.943,246.776 152.5,239C 151.167,238.667 149.833,238.333 148.5,238C 145.43,234.651 142.264,231.484 139,228.5C 138.502,225.518 138.335,222.518 138.5,219.5C 139.5,218.833 140.5,218.167 141.5,217.5 Z"/></g>
<g><path style="opacity:0.01" fill="#000000" d="M 51.5,259.5 C 51.631,260.239 51.4643,260.906 51,261.5C 50.3083,260.563 50.475,259.897 51.5,259.5 Z"/></g>
<g><path style="opacity:1" fill="#55536b" d="M 138.5,219.5 C 138.335,222.518 138.502,225.518 139,228.5C 142.264,231.484 145.43,234.651 148.5,238C 149.833,238.333 151.167,238.667 152.5,239C 159.943,246.776 168.276,253.443 177.5,259C 213.205,258.433 248.871,256.766 284.5,254C 296.441,251.674 308.441,249.841 320.5,248.5C 318.239,250.255 315.572,251.422 312.5,252C 286.746,255.959 261.246,260.125 236,264.5C 215.952,264.132 195.452,263.966 174.5,264C 171.756,263.197 169.089,262.197 166.5,261C 156.003,251.503 145.836,241.669 136,231.5C 135.264,228.408 135.431,225.408 136.5,222.5C 136.932,221.29 137.599,220.29 138.5,219.5 Z"/></g>
<g><path style="opacity:0.012" fill="#646271" d="M 406.5,258.5 C 407.643,261.976 407.81,265.642 407,269.5C 406.501,265.848 406.335,262.182 406.5,258.5 Z"/></g>
<g><path style="opacity:0.01" fill="#000000" d="M 51.5,262.5 C 52.525,262.897 52.6917,263.563 52,264.5C 51.5357,263.906 51.369,263.239 51.5,262.5 Z"/></g>
<g><path style="opacity:0.006" fill="#000000" d="M 407.5,271.5 C 408.65,276.316 408.816,281.316 408,286.5C 407.501,281.511 407.334,276.511 407.5,271.5 Z"/></g>
<g><path style="opacity:0.008" fill="#000000" d="M 58.5,276.5 C 58.631,277.239 58.4643,277.906 58,278.5C 57.3083,277.563 57.475,276.897 58.5,276.5 Z"/></g>
<g><path style="opacity:0.016" fill="#474747" d="M 406.5,289.5 C 407.641,292.64 407.808,295.973 407,299.5C 406.502,296.183 406.335,292.85 406.5,289.5 Z"/></g>
<g><path style="opacity:1" fill="#080607" d="M 116.5,304.5 C 128.375,320.253 142.042,334.253 157.5,346.5C 174.617,361.569 193.617,373.903 214.5,383.5C 218.956,385.892 223.623,388.058 228.5,390C 240.765,394.156 253.098,397.656 265.5,400.5C 260.946,400.745 256.446,400.412 252,399.5C 242.962,401.851 234.795,406.017 227.5,412C 223.401,414.09 219.067,415.256 214.5,415.5C 210.374,415.428 206.374,414.761 202.5,413.5C 200.278,412.614 198.112,412.614 196,413.5C 194.238,413.056 194.405,412.556 196.5,412C 195.5,411.5 194.5,411 193.5,410.5C 190.636,411.594 187.969,411.094 185.5,409C 186.167,408.667 186.833,408.333 187.5,408C 183.167,405.833 178.833,403.667 174.5,401.5C 173.833,401.833 173.167,402.167 172.5,402.5C 165.369,398.532 158.369,394.366 151.5,390C 151.619,388.719 151.119,387.552 150,386.5C 149.586,386.957 149.086,387.291 148.5,387.5C 147.169,386.408 146.336,385.074 146,383.5C 145.586,383.957 145.086,384.291 144.5,384.5C 144.704,383.471 144.204,382.471 143,381.5C 142.282,382.451 141.449,382.617 140.5,382C 140.867,380.243 140.034,378.743 138,377.5C 137.282,378.451 136.449,378.617 135.5,378C 135.867,376.243 135.034,374.743 133,373.5C 132.282,374.451 131.449,374.617 130.5,374C 130.131,371.532 128.631,369.365 126,367.5C 124.129,368.668 122.629,368.168 121.5,366C 121.833,365.667 122.167,365.333 122.5,365C 115.998,357.798 109.164,351.631 102,346.5C 101.383,345.551 101.549,344.718 102.5,344C 101.29,342.961 100.29,341.794 99.5,340.5C 99.2488,338.83 98.5822,337.33 97.5,336C 98.4506,335.282 98.6172,334.449 98,333.5C 87.5853,322.16 79.4186,309.66 73.5,296C 73.4336,293.534 73.4336,291.034 73.5,288.5C 70.9912,286.41 71.3246,284.577 74.5,283C 73.3279,282.581 72.3279,281.915 71.5,281C 73.7231,280.348 74.8898,278.848 75,276.5C 76,276.5 77,276.5 78,276.5C 79.3199,274.346 81.1532,272.846 83.5,272C 83,271.5 82.5,271 82,270.5C 81.3333,271.833 80.6667,271.833 80,270.5C 79.5488,272.929 78.7155,273.096 77.5,271C 79.1667,269.833 80.8333,268.667 82.5,267.5C 81.1103,265.831 80.7769,264.164 81.5,262.5C 83.0421,263.747 84.5421,263.747 86,262.5C 86.6891,263.357 87.5224,264.023 88.5,264.5C 94.7537,276.225 101.587,287.558 109,298.5C 110.62,300.241 112.12,302.075 113.5,304C 114.448,304.483 115.448,304.649 116.5,304.5 Z"/></g>
<g><path style="opacity:1" fill="#2f3346" d="M 74.5,220.5 C 75.4584,220.953 76.2917,221.619 77,222.5C 80.4207,236.093 85.4207,249.093 92,261.5C 92.8893,262.888 93.3893,262.722 93.5,261C 91.6947,257.259 90.528,253.426 90,249.5C 106.289,285.396 128.955,316.729 158,343.5C 159.812,345.304 159.646,346.304 157.5,346.5C 142.042,334.253 128.375,320.253 116.5,304.5C 97.4997,279.501 83.4997,251.834 74.5,221.5C 74.5,221.167 74.5,220.833 74.5,220.5 Z"/></g>
<g><path style="opacity:0.012" fill="#404040" d="M 401.5,319.5 C 402.833,320.5 402.833,321.5 401.5,322.5C 401.5,321.5 401.5,320.5 401.5,319.5 Z"/></g>
<g><path style="opacity:1" fill="#6f7593" d="M 387.5,209.5 C 388.833,211.5 390.167,213.5 391.5,215.5C 391.336,218.187 391.503,220.854 392,223.5C 401.015,251.599 403.015,280.265 398,309.5C 394.87,321.581 390.203,332.914 384,343.5C 382.488,344.257 381.154,345.257 380,346.5C 376.085,351.993 372.419,357.66 369,363.5C 362.437,369.38 355.27,374.547 347.5,379C 348.416,379.278 349.082,379.778 349.5,380.5C 347.422,383.051 344.756,384.884 341.5,386C 336.406,387.813 331.406,389.646 326.5,391.5C 307.585,395.401 288.585,396.235 269.5,394C 286.718,393.386 303.718,390.72 320.5,386C 363.706,369.024 388.039,337.858 393.5,292.5C 393.215,284.684 393.215,277.017 393.5,269.5C 394.222,273.391 395.056,277.391 396,281.5C 396.167,279.667 396.333,277.833 396.5,276C 396.394,270.711 395.727,265.211 394.5,259.5C 394.608,258.558 394.941,257.725 395.5,257C 393.527,252.631 393.194,248.131 394.5,243.5C 391.795,232.227 389.462,220.894 387.5,209.5 Z"/></g>
<g><path style="opacity:0.012" fill="#2c2c2c" d="M 400.5,322.5 C 400.833,322.5 401.167,322.5 401.5,322.5C 401.737,323.791 401.404,324.791 400.5,325.5C 400.5,324.5 400.5,323.5 400.5,322.5 Z"/></g>
<g><path style="opacity:0.012" fill="#2c2c2c" d="M 399.5,325.5 C 399.833,325.5 400.167,325.5 400.5,325.5C 400.737,326.791 400.404,327.791 399.5,328.5C 399.5,327.5 399.5,326.5 399.5,325.5 Z"/></g>
<g><path style="opacity:0.007" fill="#000000" d="M 88.5,327.5 C 89.1667,327.5 89.5,327.833 89.5,328.5C 89.2533,330.975 88.5866,330.975 87.5,328.5C 87.6236,327.893 87.9569,327.56 88.5,327.5 Z"/></g>
<g><path style="opacity:0.012" fill="#2c2c2c" d="M 398.5,328.5 C 398.833,328.5 399.167,328.5 399.5,328.5C 399.737,329.791 399.404,330.791 398.5,331.5C 398.5,330.5 398.5,329.5 398.5,328.5 Z"/></g>
<g><path style="opacity:1" fill="#63647f" d="M 99.5,97.5 C 98.2049,101.423 96.3716,105.09 94,108.5C 92.1017,118.432 89.4351,128.098 86,137.5C 84.9947,146.876 83.828,156.209 82.5,165.5C 83.8688,168.201 83.5355,170.701 81.5,173C 83.9129,190.359 87.4129,207.526 92,224.5C 96.393,235.012 100.393,245.678 104,256.5C 128.67,295.948 161.17,327.448 201.5,351C 230.671,367.697 262.005,374.197 295.5,370.5C 332.981,367.992 359.815,349.659 376,315.5C 385.476,286.913 385.976,257.913 377.5,228.5C 378.496,228.414 379.329,228.748 380,229.5C 380.232,230.737 380.732,231.737 381.5,232.5C 385.131,241.148 388.797,249.814 392.5,258.5C 391.808,260.335 392.142,262.168 393.5,264C 392.248,265.828 392.248,267.661 393.5,269.5C 393.215,277.017 393.215,284.684 393.5,292.5C 388.039,337.858 363.706,369.024 320.5,386C 303.718,390.72 286.718,393.386 269.5,394C 288.585,396.235 307.585,395.401 326.5,391.5C 323.34,393.504 319.673,394.671 315.5,395C 296.014,398.724 276.681,398.224 257.5,393.5C 257.389,392.883 257.056,392.383 256.5,392C 252.347,391.616 248.347,390.616 244.5,389C 243.833,388 243.167,387 242.5,386C 228.81,380.66 215.81,373.994 203.5,366C 200.673,364.377 197.673,363.21 194.5,362.5C 186.096,356.007 177.763,349.173 169.5,342C 168.167,341.667 166.833,341.333 165.5,341C 142.637,320.661 122.637,298.161 105.5,273.5C 105.322,270.784 104.822,268.117 104,265.5C 101.482,260.478 98.8152,255.478 96,250.5C 92.8762,240.128 89.5428,229.794 86,219.5C 85.3333,218.833 84.6667,218.167 84,217.5C 79.7243,195.065 78.3909,172.398 80,149.5C 80.2191,129.465 86.7191,112.132 99.5,97.5 Z"/></g>
<g><path style="opacity:1" fill="#51536f" d="M 180.5,282.5 C 177.228,290.377 173.395,298.044 169,305.5C 168.218,308.257 168.718,310.757 170.5,313C 186.053,313.435 201.387,313.935 216.5,314.5C 247.71,312.219 278.71,310.219 309.5,308.5C 307.265,311.239 304.598,313.406 301.5,315C 282.645,316.201 263.645,317.701 244.5,319.5C 243.914,319.291 243.414,318.957 243,318.5C 231.653,320.418 220.32,322.418 209,324.5C 205.224,324.677 201.391,324.677 197.5,324.5C 194.167,325.333 190.833,326.167 187.5,327C 186.944,327.383 186.611,327.883 186.5,328.5C 178.241,322.872 170.574,316.539 163.5,309.5C 164.496,309.414 165.329,309.748 166,310.5C 168.274,303.286 171.607,296.619 176,290.5C 176.29,288.048 176.956,285.715 178,283.5C 178.671,282.748 179.504,282.414 180.5,282.5 Z"/></g>
<g><path style="opacity:1" fill="#3d3a58" d="M 189.5,273.5 C 184.601,283.63 179.435,293.63 174,303.5C 173.257,305.441 173.424,307.274 174.5,309C 191.513,309.166 208.513,308.666 225.5,307.5C 230.833,307.167 236.167,306.833 241.5,306.5C 250.82,305.871 260.154,305.538 269.5,305.5C 281.167,304.833 292.833,304.167 304.5,303.5C 306.833,303.5 309.167,303.5 311.5,303.5C 312.552,303.351 313.552,303.517 314.5,304C 312.963,305.707 311.296,307.207 309.5,308.5C 278.71,310.219 247.71,312.219 216.5,314.5C 201.387,313.935 186.053,313.435 170.5,313C 168.718,310.757 168.218,308.257 169,305.5C 173.395,298.044 177.228,290.377 180.5,282.5C 182.613,278.641 185.447,275.308 189,272.5C 189.399,272.728 189.565,273.062 189.5,273.5 Z"/></g>
<g><path style="opacity:1" fill="#291f23" d="M 361.5,282.5 C 359.018,316.259 344.018,341.593 316.5,358.5C 310.785,361.072 304.785,363.072 298.5,364.5C 314.239,359.274 327.073,349.941 337,336.5C 339.063,332.604 340.896,328.604 342.5,324.5C 352.304,308.96 357.304,291.96 357.5,273.5C 358.326,269.018 358.826,264.351 359,259.5C 359.815,267.32 360.648,274.987 361.5,282.5 Z"/></g>
<g><path style="opacity:1" fill="#60627e" d="M 321.5,297.5 C 319.12,304.638 315.787,311.304 311.5,317.5C 311.709,318.086 312.043,318.586 312.5,319C 310.221,319.473 308.221,320.473 306.5,322C 309.447,322.112 310.78,323.612 310.5,326.5C 308.167,326.5 305.833,326.5 303.5,326.5C 303.329,329.797 303.995,330.131 305.5,327.5C 306.95,328.85 307.617,330.516 307.5,332.5C 312.088,332.119 312.422,330.953 308.5,329C 309,328.5 309.5,328 310,327.5C 311.016,328.634 311.683,328.301 312,326.5C 313.067,327.191 314.234,327.691 315.5,328C 314.549,328.718 314.383,329.551 315,330.5C 316.395,329.185 317.395,329.519 318,331.5C 319.427,329.295 319.927,327.128 319.5,325C 321.113,324.911 322.28,325.745 323,327.5C 323.71,326.027 324.876,325.36 326.5,325.5C 326.36,323.876 327.027,322.71 328.5,322C 328.043,321.586 327.709,321.086 327.5,320.5C 329.369,319.376 331.369,318.543 333.5,318C 334.26,316.559 334.926,315.059 335.5,313.5C 336.325,312.614 337.325,312.281 338.5,312.5C 339.422,309.874 340.422,307.207 341.5,304.5C 342.365,303.417 343.365,303.251 344.5,304C 341.48,306.264 340.813,309.097 342.5,312.5C 341.256,315.651 339.589,318.484 337.5,321C 337.982,322.008 338.148,323.175 338,324.5C 338.915,323.672 339.581,322.672 340,321.5C 340.513,322.527 341.013,323.527 341.5,324.5C 336.516,332.483 330.183,339.149 322.5,344.5C 313.189,350.11 303.189,354.276 292.5,357C 253.021,362.444 217.687,352.944 186.5,328.5C 186.611,327.883 186.944,327.383 187.5,327C 190.833,326.167 194.167,325.333 197.5,324.5C 201.391,324.677 205.224,324.677 209,324.5C 220.32,322.418 231.653,320.418 243,318.5C 243.414,318.957 243.914,319.291 244.5,319.5C 263.645,317.701 282.645,316.201 301.5,315C 304.598,313.406 307.265,311.239 309.5,308.5C 311.296,307.207 312.963,305.707 314.5,304C 313.552,303.517 312.552,303.351 311.5,303.5C 315.993,303.516 319.326,301.516 321.5,297.5 Z"/></g>
<g><path style="opacity:1" fill="#d99cd6" d="M 208.5,268.5 C 211.857,268.106 214.19,269.439 215.5,272.5C 218.869,283.439 222.535,294.273 226.5,305C 226.257,305.902 225.923,306.735 225.5,307.5C 208.513,308.666 191.513,309.166 174.5,309C 173.424,307.274 173.257,305.441 174,303.5C 179.435,293.63 184.601,283.63 189.5,273.5C 191.094,272.017 192.76,270.517 194.5,269C 199.155,268.501 203.821,268.334 208.5,268.5 Z"/></g>
<g><path style="opacity:1" fill="#be9fd2" d="M 208.5,268.5 C 215.648,267.508 222.981,267.175 230.5,267.5C 229.737,268.268 228.737,268.768 227.5,269C 232.082,281.584 236.748,294.084 241.5,306.5C 236.167,306.833 230.833,307.167 225.5,307.5C 225.923,306.735 226.257,305.902 226.5,305C 222.535,294.273 218.869,283.439 215.5,272.5C 214.19,269.439 211.857,268.106 208.5,268.5 Z"/></g>
<g><path style="opacity:1" fill="#a4a0d0" d="M 242.5,266.5 C 245.85,266.335 249.183,266.502 252.5,267C 252.167,267.333 251.833,267.667 251.5,268C 254.605,271.854 256.439,276.354 257,281.5C 257.814,283.282 258.981,284.782 260.5,286C 260.043,286.414 259.709,286.914 259.5,287.5C 261.249,292.874 262.916,298.207 264.5,303.5C 266.857,303.337 269.19,303.503 271.5,304C 270.584,304.278 269.918,304.778 269.5,305.5C 260.154,305.538 250.82,305.871 241.5,306.5C 236.748,294.084 232.082,281.584 227.5,269C 228.737,268.768 229.737,268.268 230.5,267.5C 234.298,266.517 238.298,266.183 242.5,266.5 Z"/></g>
<g><path style="opacity:1" fill="#7196c7" d="M 300.5,263.5 C 303.5,263.5 306.5,263.5 309.5,263.5C 312.357,273.573 315.524,283.573 319,293.5C 319.377,294.942 320.21,295.942 321.5,296.5C 321.5,296.833 321.5,297.167 321.5,297.5C 319.326,301.516 315.993,303.516 311.5,303.5C 309.167,303.5 306.833,303.5 304.5,303.5C 303.469,302.751 302.302,302.085 301,301.5C 296.289,289.379 292.456,277.213 289.5,265C 293.356,264.823 297.023,264.323 300.5,263.5 Z"/></g>
<g><path style="opacity:1" fill="#909bcb" d="M 296.5,263.5 C 297.833,263.5 299.167,263.5 300.5,263.5C 297.023,264.323 293.356,264.823 289.5,265C 292.456,277.213 296.289,289.379 301,301.5C 302.302,302.085 303.469,302.751 304.5,303.5C 292.833,304.167 281.167,304.833 269.5,305.5C 269.918,304.778 270.584,304.278 271.5,304C 269.19,303.503 266.857,303.337 264.5,303.5C 262.916,298.207 261.249,292.874 259.5,287.5C 259.709,286.914 260.043,286.414 260.5,286C 258.981,284.782 257.814,283.282 257,281.5C 256.439,276.354 254.605,271.854 251.5,268C 251.833,267.667 252.167,267.333 252.5,267C 249.183,266.502 245.85,266.335 242.5,266.5C 260.324,265.108 278.324,264.108 296.5,263.5 Z"/></g>
<g><path style="opacity:1" fill="#73c3b9" d="M 320.5,262.5 C 326.176,262.334 331.843,262.501 337.5,263C 338.022,263.561 338.355,264.228 338.5,265C 335.055,272.905 331.055,280.405 326.5,287.5C 325.21,286.942 324.377,285.942 324,284.5C 322.351,277.052 319.517,270.219 315.5,264C 317.382,263.802 319.048,263.302 320.5,262.5 Z"/></g>
<g><path style="opacity:1" fill="#6aabc1" d="M 320.5,262.5 C 319.048,263.302 317.382,263.802 315.5,264C 319.517,270.219 322.351,277.052 324,284.5C 324.377,285.942 325.21,286.942 326.5,287.5C 325.071,290.696 323.405,293.696 321.5,296.5C 320.21,295.942 319.377,294.942 319,293.5C 315.524,283.573 312.357,273.573 309.5,263.5C 313.064,262.577 316.731,262.244 320.5,262.5 Z"/></g>
<g><path style="opacity:0.008" fill="#1f1f1f" d="M 397.5,331.5 C 397.833,331.5 398.167,331.5 398.5,331.5C 398.672,332.492 398.338,333.158 397.5,333.5C 397.5,332.833 397.5,332.167 397.5,331.5 Z"/></g>
<g><path style="opacity:1" fill="#b9b6c7" d="M 101.5,189.5 C 102.761,198.822 104.261,208.155 106,217.5C 126.507,286.504 170.34,333.838 237.5,359.5C 236.399,360.598 235.066,360.765 233.5,360C 227.013,358.06 220.679,355.727 214.5,353C 185.468,337.146 160.468,316.312 139.5,290.5C 136.329,284.182 132.162,278.515 127,273.5C 123.845,266.646 120.178,259.979 116,253.5C 111.335,241.512 106.668,229.512 102,217.5C 99.0519,205.355 97.5519,193.022 97.5,180.5C 96.8099,165.858 99.3099,151.858 105,138.5C 102.883,147.995 101.55,157.662 101,167.5C 100.178,175.012 100.345,182.345 101.5,189.5 Z"/></g>
<g><path style="opacity:0.012" fill="#2c2c2c" d="M 396.5,333.5 C 396.833,333.5 397.167,333.5 397.5,333.5C 397.737,334.791 397.404,335.791 396.5,336.5C 396.5,335.5 396.5,334.5 396.5,333.5 Z"/></g>
<g><path style="opacity:0.004" fill="#1f1f1f" d="M 395.5,336.5 C 395.833,336.5 396.167,336.5 396.5,336.5C 396.672,337.492 396.338,338.158 395.5,338.5C 395.5,337.833 395.5,337.167 395.5,336.5 Z"/></g>
<g><path style="opacity:1" fill="#624b4f" d="M 374.5,295.5 C 373.676,305.1 370.676,313.766 365.5,321.5C 364.846,323.115 364.346,324.782 364,326.5C 357.848,334.651 351.015,342.151 343.5,349C 339.882,351.974 335.882,354.141 331.5,355.5C 334.688,353.31 337.855,350.976 341,348.5C 341.688,347.668 341.521,347.002 340.5,346.5C 339.378,347.63 338.044,348.297 336.5,348.5C 340.807,344.528 345.141,340.528 349.5,336.5C 351.129,335.375 352.629,334.041 354,332.5C 356.724,327.029 360.391,322.362 365,318.5C 367.895,310.629 371.062,302.962 374.5,295.5 Z"/></g>
<g><path style="opacity:0.004" fill="#1f1f1f" d="M 394.5,338.5 C 394.833,338.5 395.167,338.5 395.5,338.5C 395.672,339.492 395.338,340.158 394.5,340.5C 394.5,339.833 394.5,339.167 394.5,338.5 Z"/></g>
<g><path style="opacity:0.004" fill="#1f1f1f" d="M 393.5,340.5 C 393.833,340.5 394.167,340.5 394.5,340.5C 394.672,341.492 394.338,342.158 393.5,342.5C 393.5,341.833 393.5,341.167 393.5,340.5 Z"/></g>
<g><path style="opacity:0.004" fill="#1f1f1f" d="M 392.5,342.5 C 392.833,342.5 393.167,342.5 393.5,342.5C 393.672,343.492 393.338,344.158 392.5,344.5C 392.5,343.833 392.5,343.167 392.5,342.5 Z"/></g>
<g><path style="opacity:1" fill="#60586b" d="M 232.5,84.5 C 237.736,85.8051 243.07,86.6384 248.5,87C 266.513,93.8394 283.513,102.506 299.5,113C 303.332,116.85 307.665,119.85 312.5,122C 325.14,135.742 336.973,150.242 348,165.5C 350.777,170.637 352.944,175.97 354.5,181.5C 355.675,181.281 356.675,181.614 357.5,182.5C 358.71,187.924 361.21,192.59 365,196.5C 369.107,207.271 373.274,217.938 377.5,228.5C 385.976,257.913 385.476,286.913 376,315.5C 359.815,349.659 332.981,367.992 295.5,370.5C 301.008,369.455 306.341,367.789 311.5,365.5C 317.942,361.727 324.608,358.394 331.5,355.5C 335.882,354.141 339.882,351.974 343.5,349C 351.015,342.151 357.848,334.651 364,326.5C 364.346,324.782 364.846,323.115 365.5,321.5C 370.676,313.766 373.676,305.1 374.5,295.5C 375.322,293.611 376.155,291.611 377,289.5C 379.566,268.261 378.233,247.261 373,226.5C 360.383,187.457 339.216,153.624 309.5,125C 305.005,123.189 301.005,120.522 297.5,117C 289.5,111.667 281.5,106.333 273.5,101C 265.25,96.6435 256.75,92.8102 248,89.5C 244.65,88.0251 241.15,87.3584 237.5,87.5C 235.928,86.3127 234.261,85.3127 232.5,84.5 Z"/></g>
<g><path style="opacity:0.004" fill="#1f1f1f" d="M 391.5,344.5 C 391.833,344.5 392.167,344.5 392.5,344.5C 392.672,345.492 392.338,346.158 391.5,346.5C 391.5,345.833 391.5,345.167 391.5,344.5 Z"/></g>
<g><path style="opacity:0.012" fill="#545554" d="M 390.5,346.5 C 390.833,346.5 391.167,346.5 391.5,346.5C 391.315,347.17 390.981,347.17 390.5,346.5 Z"/></g>
<g><path style="opacity:1" fill="#3b405a" d="M 341.5,324.5 C 341.833,324.5 342.167,324.5 342.5,324.5C 340.896,328.604 339.063,332.604 337,336.5C 327.073,349.941 314.239,359.274 298.5,364.5C 292.203,365.32 285.869,365.653 279.5,365.5C 286.732,361.808 294.399,358.974 302.5,357C 307.31,354.094 312.31,351.427 317.5,349C 319.618,347.951 321.284,346.451 322.5,344.5C 330.183,339.149 336.516,332.483 341.5,324.5 Z"/></g>
<g><path style="opacity:0.008" fill="#535353" d="M 389.5,347.5 C 389.833,347.5 390.167,347.5 390.5,347.5C 390.672,348.492 390.338,349.158 389.5,349.5C 389.5,348.833 389.5,348.167 389.5,347.5 Z"/></g>
<g><path style="opacity:0.004" fill="#1f1f1f" d="M 388.5,349.5 C 388.833,349.5 389.167,349.5 389.5,349.5C 389.672,350.492 389.338,351.158 388.5,351.5C 388.5,350.833 388.5,350.167 388.5,349.5 Z"/></g>
<g><path style="opacity:0.012" fill="#545554" d="M 387.5,351.5 C 387.833,351.5 388.167,351.5 388.5,351.5C 388.315,352.17 387.981,352.17 387.5,351.5 Z"/></g>
<g><path style="opacity:0.004" fill="#a2a2a2" d="M 386.5,352.5 C 386.833,352.5 387.167,352.5 387.5,352.5C 387.672,353.492 387.338,354.158 386.5,354.5C 386.5,353.833 386.5,353.167 386.5,352.5 Z"/></g>
<g><path style="opacity:0.012" fill="#545554" d="M 385.5,354.5 C 385.833,354.5 386.167,354.5 386.5,354.5C 386.315,355.17 385.981,355.17 385.5,354.5 Z"/></g>
<g><path style="opacity:1" fill="#4f5169" d="M 105.5,273.5 C 122.637,298.161 142.637,320.661 165.5,341C 166.833,341.333 168.167,341.667 169.5,342C 177.763,349.173 186.096,356.007 194.5,362.5C 197.673,363.21 200.673,364.377 203.5,366C 215.81,373.994 228.81,380.66 242.5,386C 243.167,387 243.833,388 244.5,389C 248.347,390.616 252.347,391.616 256.5,392C 257.056,392.383 257.389,392.883 257.5,393.5C 250.417,392.61 243.75,390.61 237.5,387.5C 224.904,382.961 212.571,377.628 200.5,371.5C 159.89,347.227 128.223,314.561 105.5,273.5 Z"/></g>
<g><path style="opacity:0.004" fill="#1f1f1f" d="M 384.5,355.5 C 384.833,355.5 385.167,355.5 385.5,355.5C 385.672,356.492 385.338,357.158 384.5,357.5C 384.5,356.833 384.5,356.167 384.5,355.5 Z"/></g>
<g><path style="opacity:0.008" fill="#7e7f7e" d="M 383.5,357.5 C 383.833,357.5 384.167,357.5 384.5,357.5C 384.315,358.17 383.981,358.17 383.5,357.5 Z"/></g>
<g><path style="opacity:0.016" fill="#7e7f7e" d="M 382.5,358.5 C 382.833,358.5 383.167,358.5 383.5,358.5C 383.315,359.17 382.981,359.17 382.5,358.5 Z"/></g>
<g><path style="opacity:0.004" fill="#773cb2" d="M 381.5,359.5 C 381.833,359.5 382.167,359.5 382.5,359.5C 382.672,360.492 382.338,361.158 381.5,361.5C 381.5,360.833 381.5,360.167 381.5,359.5 Z"/></g>
<g><path style="opacity:0.008" fill="#7e7f7e" d="M 380.5,361.5 C 380.833,361.5 381.167,361.5 381.5,361.5C 381.315,362.17 380.981,362.17 380.5,361.5 Z"/></g>
<g><path style="opacity:0.012" fill="#5555aa" d="M 379.5,362.5 C 379.833,362.5 380.167,362.5 380.5,362.5C 380.315,363.17 379.981,363.17 379.5,362.5 Z"/></g>
<g><path style="opacity:1" fill="#8d97b2" d="M 392.5,209.5 C 395.367,216.768 398.034,224.101 400.5,231.5C 400.5,233.167 400.5,234.833 400.5,236.5C 403.003,250.032 404.337,263.699 404.5,277.5C 405.538,321.765 387.871,356.098 351.5,380.5C 350.833,380.5 350.167,380.5 349.5,380.5C 349.082,379.778 348.416,379.278 347.5,379C 355.27,374.547 362.437,369.38 369,363.5C 372.419,357.66 376.085,351.993 380,346.5C 381.154,345.257 382.488,344.257 384,343.5C 390.203,332.914 394.87,321.581 398,309.5C 403.015,280.265 401.015,251.599 392,223.5C 391.503,220.854 391.336,218.187 391.5,215.5C 392.117,215.611 392.617,215.944 393,216.5C 393.018,214.203 392.851,211.869 392.5,209.5 Z"/></g>
<g><path style="opacity:0.016" fill="#7e7f7e" d="M 378.5,363.5 C 378.833,363.5 379.167,363.5 379.5,363.5C 379.315,364.17 378.981,364.17 378.5,363.5 Z"/></g>
<g><path style="opacity:1" fill="#ac9093" d="M 331.5,355.5 C 324.608,358.394 317.942,361.727 311.5,365.5C 287.239,370.285 263.239,369.285 239.5,362.5C 238.33,361.306 238.663,360.639 240.5,360.5C 253.145,364.626 266.145,366.293 279.5,365.5C 285.869,365.653 292.203,365.32 298.5,364.5C 304.785,363.072 310.785,361.072 316.5,358.5C 323.446,355.694 330.112,352.361 336.5,348.5C 338.044,348.297 339.378,347.63 340.5,346.5C 341.521,347.002 341.688,347.668 341,348.5C 337.855,350.976 334.688,353.31 331.5,355.5 Z"/></g>
<g><path style="opacity:0.008" fill="#7e7f7e" d="M 375.5,367.5 C 375.833,367.5 376.167,367.5 376.5,367.5C 376.315,368.17 375.981,368.17 375.5,367.5 Z"/></g>
<g><path style="opacity:0.012" fill="#545554" d="M 374.5,368.5 C 374.833,368.5 375.167,368.5 375.5,368.5C 375.315,369.17 374.981,369.17 374.5,368.5 Z"/></g>
<g><path style="opacity:0.012" fill="#545554" d="M 373.5,369.5 C 373.833,369.5 374.167,369.5 374.5,369.5C 374.315,370.17 373.981,370.17 373.5,369.5 Z"/></g>
<g><path style="opacity:0.012" fill="#545554" d="M 372.5,370.5 C 372.833,370.5 373.167,370.5 373.5,370.5C 373.315,371.17 372.981,371.17 372.5,370.5 Z"/></g>
<g><path style="opacity:0.012" fill="#5555aa" d="M 371.5,371.5 C 371.833,371.5 372.167,371.5 372.5,371.5C 372.315,372.17 371.981,372.17 371.5,371.5 Z"/></g>
<g><path style="opacity:0.016" fill="#3f7f7e" d="M 370.5,372.5 C 370.833,372.5 371.167,372.5 371.5,372.5C 371.315,373.17 370.981,373.17 370.5,372.5 Z"/></g>
<g><path style="opacity:0.016" fill="#3f7f7e" d="M 369.5,373.5 C 369.833,373.5 370.167,373.5 370.5,373.5C 370.315,374.17 369.981,374.17 369.5,373.5 Z"/></g>
<g><path style="opacity:0.016" fill="#3f3f7f" d="M 368.5,374.5 C 368.833,374.5 369.167,374.5 369.5,374.5C 369.315,375.17 368.981,375.17 368.5,374.5 Z"/></g>
<g><path style="opacity:0.012" fill="#545554" d="M 367.5,375.5 C 367.833,375.5 368.167,375.5 368.5,375.5C 368.315,376.17 367.981,376.17 367.5,375.5 Z"/></g>
<g><path style="opacity:0.012" fill="#545554" d="M 366.5,376.5 C 366.833,376.5 367.167,376.5 367.5,376.5C 367.315,377.17 366.981,377.17 366.5,376.5 Z"/></g>
<g><path style="opacity:1" fill="#4d5055" d="M 400.5,236.5 C 401.626,239.465 402.626,242.465 403.5,245.5C 407.884,270.307 407.217,294.974 401.5,319.5C 400.596,320.209 400.263,321.209 400.5,322.5C 399.596,323.209 399.263,324.209 399.5,325.5C 398.596,326.209 398.263,327.209 398.5,328.5C 397.596,329.209 397.263,330.209 397.5,331.5C 396.662,331.842 396.328,332.508 396.5,333.5C 395.596,334.209 395.263,335.209 395.5,336.5C 394.662,336.842 394.328,337.508 394.5,338.5C 393.662,338.842 393.328,339.508 393.5,340.5C 392.662,340.842 392.328,341.508 392.5,342.5C 391.662,342.842 391.328,343.508 391.5,344.5C 390.662,344.842 390.328,345.508 390.5,346.5C 389.833,346.5 389.5,346.833 389.5,347.5C 388.662,347.842 388.328,348.508 388.5,349.5C 387.662,349.842 387.328,350.508 387.5,351.5C 386.833,351.5 386.5,351.833 386.5,352.5C 385.662,352.842 385.328,353.508 385.5,354.5C 384.833,354.5 384.5,354.833 384.5,355.5C 384.167,355.5 383.833,355.5 383.5,355.5C 383.631,354.624 383.298,353.957 382.5,353.5C 374.648,363.519 365.648,372.352 355.5,380C 354.207,380.49 352.873,380.657 351.5,380.5C 387.871,356.098 405.538,321.765 404.5,277.5C 404.337,263.699 403.003,250.032 400.5,236.5 Z"/></g>
<g><path style="opacity:0.012" fill="#545554" d="M 365.5,377.5 C 365.833,377.5 366.167,377.5 366.5,377.5C 366.315,378.17 365.981,378.17 365.5,377.5 Z"/></g>
<g><path style="opacity:0.012" fill="#545554" d="M 364.5,378.5 C 364.833,378.5 365.167,378.5 365.5,378.5C 365.315,379.17 364.981,379.17 364.5,378.5 Z"/></g>
<g><path style="opacity:0.016" fill="#3f3f7f" d="M 358.5,383.5 C 358.833,383.5 359.167,383.5 359.5,383.5C 359.315,384.17 358.981,384.17 358.5,383.5 Z"/></g>
<g><path style="opacity:0.012" fill="#545554" d="M 357.5,384.5 C 357.833,384.5 358.167,384.5 358.5,384.5C 358.315,385.17 357.981,385.17 357.5,384.5 Z"/></g>
<g><path style="opacity:0.012" fill="#545554" d="M 356.5,385.5 C 356.833,385.5 357.167,385.5 357.5,385.5C 357.315,386.17 356.981,386.17 356.5,385.5 Z"/></g>
<g><path style="opacity:0.012" fill="#545554" d="M 355.5,386.5 C 355.833,386.5 356.167,386.5 356.5,386.5C 356.315,387.17 355.981,387.17 355.5,386.5 Z"/></g>
<g><path style="opacity:0.016" fill="#3f3f7f" d="M 349.5,391.5 C 349.833,391.5 350.167,391.5 350.5,391.5C 350.315,392.17 349.981,392.17 349.5,391.5 Z"/></g>
<g><path style="opacity:0.012" fill="#545554" d="M 348.5,392.5 C 348.833,392.5 349.167,392.5 349.5,392.5C 349.315,393.17 348.981,393.17 348.5,392.5 Z"/></g>
<g><path style="opacity:1" fill="#40312a" d="M 383.5,355.5 C 383.5,355.833 383.5,356.167 383.5,356.5C 376.443,363.055 369.443,369.888 362.5,377C 348.967,386.6 334.3,393.767 318.5,398.5C 310.872,399.78 303.206,400.78 295.5,401.5C 290.5,401.5 285.5,401.5 280.5,401.5C 275.482,401.387 270.482,401.053 265.5,400.5C 253.098,397.656 240.765,394.156 228.5,390C 223.623,388.058 218.956,385.892 214.5,383.5C 214.735,382.903 215.235,382.57 216,382.5C 219,383.833 222,385.167 225,386.5C 226.144,386.089 227.311,385.756 228.5,385.5C 231.42,386.586 234.42,387.252 237.5,387.5C 243.75,390.61 250.417,392.61 257.5,393.5C 276.681,398.224 296.014,398.724 315.5,395C 319.673,394.671 323.34,393.504 326.5,391.5C 331.406,389.646 336.406,387.813 341.5,386C 344.756,384.884 347.422,383.051 349.5,380.5C 350.167,380.5 350.833,380.5 351.5,380.5C 352.873,380.657 354.207,380.49 355.5,380C 365.648,372.352 374.648,363.519 382.5,353.5C 383.298,353.957 383.631,354.624 383.5,355.5 Z"/></g>
<g><path style="opacity:0.016" fill="#3f3f7f" d="M 343.5,396.5 C 343.833,396.5 344.167,396.5 344.5,396.5C 344.315,397.17 343.981,397.17 343.5,396.5 Z"/></g>
<g><path style="opacity:0.012" fill="#545554" d="M 342.5,397.5 C 342.833,397.5 343.167,397.5 343.5,397.5C 343.315,398.17 342.981,398.17 342.5,397.5 Z"/></g>
<g><path style="opacity:0.998" fill="#586073" d="M 383.5,356.5 C 383.5,356.833 383.5,357.167 383.5,357.5C 382.833,357.5 382.5,357.833 382.5,358.5C 381.833,358.5 381.5,358.833 381.5,359.5C 380.662,359.842 380.328,360.508 380.5,361.5C 379.833,361.5 379.5,361.833 379.5,362.5C 378.833,362.5 378.5,362.833 378.5,363.5C 377.167,363.833 377.167,364.167 378.5,364.5C 378.573,366.027 377.906,367.027 376.5,367.5C 376.167,366.167 375.833,366.167 375.5,367.5C 374.833,367.5 374.5,367.833 374.5,368.5C 373.833,368.5 373.5,368.833 373.5,369.5C 372.833,369.5 372.5,369.833 372.5,370.5C 371.833,370.5 371.5,370.833 371.5,371.5C 370.833,371.5 370.5,371.833 370.5,372.5C 369.833,372.5 369.5,372.833 369.5,373.5C 368.833,373.5 368.5,373.833 368.5,374.5C 367.833,374.5 367.5,374.833 367.5,375.5C 366.833,375.5 366.5,375.833 366.5,376.5C 365.833,376.5 365.5,376.833 365.5,377.5C 364.833,377.5 364.5,377.833 364.5,378.5C 363.167,378.833 363.167,379.167 364.5,379.5C 363.415,381.587 361.749,382.92 359.5,383.5C 359.167,382.167 358.833,382.167 358.5,383.5C 357.833,383.5 357.5,383.833 357.5,384.5C 356.833,384.5 356.5,384.833 356.5,385.5C 355.833,385.5 355.5,385.833 355.5,386.5C 354.167,386.833 354.167,387.167 355.5,387.5C 354.415,389.587 352.749,390.92 350.5,391.5C 350.167,390.167 349.833,390.167 349.5,391.5C 348.833,391.5 348.5,391.833 348.5,392.5C 347.167,392.833 347.167,393.167 348.5,393.5C 347.738,395.262 346.404,396.262 344.5,396.5C 344.167,395.167 343.833,395.167 343.5,396.5C 342.833,396.5 342.5,396.833 342.5,397.5C 341.167,397.833 341.167,398.167 342.5,398.5C 342.027,399.906 341.027,400.573 339.5,400.5C 339.167,399.167 338.833,399.167 338.5,400.5C 337.167,400.833 337.167,401.167 338.5,401.5C 338.027,402.906 337.027,403.573 335.5,403.5C 335.167,402.167 334.833,402.167 334.5,403.5C 333.167,403.833 333.167,404.167 334.5,404.5C 328.948,409.356 322.615,413.023 315.5,415.5C 314.833,414.167 314.167,414.167 313.5,415.5C 310.833,415.833 310.833,416.167 313.5,416.5C 312.791,417.404 311.791,417.737 310.5,417.5C 309.833,416.167 309.167,416.167 308.5,417.5C 307.209,417.263 306.209,417.596 305.5,418.5C 304.167,418.833 304.167,419.167 305.5,419.5C 304.791,420.404 303.791,420.737 302.5,420.5C 301.5,419.167 300.5,419.167 299.5,420.5C 298.5,420.5 297.5,420.5 296.5,420.5C 293.328,420.072 290.328,419.905 287.5,420C 294.784,415.05 301.784,409.717 308.5,404C 311.767,401.87 315.1,400.037 318.5,398.5C 334.3,393.767 348.967,386.6 362.5,377C 369.443,369.888 376.443,363.055 383.5,356.5 Z"/></g>
<g><path style="opacity:0.012" fill="#545554" d="M 338.5,400.5 C 338.833,400.5 339.167,400.5 339.5,400.5C 339.315,401.17 338.981,401.17 338.5,400.5 Z"/></g>
<g><path style="opacity:0.012" fill="#545554" d="M 334.5,403.5 C 334.833,403.5 335.167,403.5 335.5,403.5C 335.315,404.17 334.981,404.17 334.5,403.5 Z"/></g>
<g><path style="opacity:0.998" fill="#2f323e" d="M 280.5,401.5 C 285.5,401.5 290.5,401.5 295.5,401.5C 295.53,402.497 295.03,403.164 294,403.5C 291.082,404.083 288.249,404.916 285.5,406C 278.284,411.391 270.951,416.557 263.5,421.5C 254.19,422.498 244.857,422.832 235.5,422.5C 233.585,422.216 231.919,422.549 230.5,423.5C 227.432,423.453 224.432,422.953 221.5,422C 222.833,421.667 224.167,421.333 225.5,421C 222.883,420.178 220.216,419.678 217.5,419.5C 212.569,419.171 207.569,418.004 202.5,416C 203.167,415.667 203.833,415.333 204.5,415C 203.584,414.722 202.918,414.222 202.5,413.5C 206.374,414.761 210.374,415.428 214.5,415.5C 215.808,416.232 217.142,417.066 218.5,418C 225.134,419.33 231.8,419.997 238.5,420C 241.637,419.399 244.637,418.399 247.5,417C 252.996,413.084 258.663,409.418 264.5,406C 269.953,404.452 275.286,402.952 280.5,401.5 Z"/></g>
<g><path style="opacity:1" fill="#1d1c21" d="M 265.5,400.5 C 270.482,401.053 275.482,401.387 280.5,401.5C 275.286,402.952 269.953,404.452 264.5,406C 258.663,409.418 252.996,413.084 247.5,417C 244.637,418.399 241.637,419.399 238.5,420C 231.8,419.997 225.134,419.33 218.5,418C 217.142,417.066 215.808,416.232 214.5,415.5C 219.067,415.256 223.401,414.09 227.5,412C 234.795,406.017 242.962,401.851 252,399.5C 256.446,400.412 260.946,400.745 265.5,400.5 Z"/></g>
<g><path style="opacity:0.008" fill="#2a208d" d="M 313.5,416.5 C 313.5,416.167 313.5,415.833 313.5,415.5C 314.167,415.5 314.833,415.5 315.5,415.5C 315.158,416.338 314.492,416.672 313.5,416.5 Z"/></g>
<g><path style="opacity:0.012" fill="#585570" d="M 308.5,418.5 C 308.5,418.167 308.5,417.833 308.5,417.5C 309.167,417.5 309.833,417.5 310.5,417.5C 310.158,418.338 309.492,418.672 308.5,418.5 Z"/></g>
<g><path style="opacity:0.016" fill="#57479e" d="M 305.5,419.5 C 305.5,419.167 305.5,418.833 305.5,418.5C 306.5,418.5 307.5,418.5 308.5,418.5C 307.791,419.404 306.791,419.737 305.5,419.5 Z"/></g>
<g><path style="opacity:0.016" fill="#283535" d="M 217.5,419.5 C 216.749,420.573 215.749,420.74 214.5,420C 215.448,419.517 216.448,419.351 217.5,419.5 Z"/></g>
<g><path style="opacity:0.016" fill="#423e5e" d="M 299.5,421.5 C 299.5,421.167 299.5,420.833 299.5,420.5C 300.5,420.5 301.5,420.5 302.5,420.5C 301.791,421.404 300.791,421.737 299.5,421.5 Z"/></g>
<g><path style="opacity:0.755" fill="#464c5e" d="M 318.5,398.5 C 315.1,400.037 311.767,401.87 308.5,404C 301.784,409.717 294.784,415.05 287.5,420C 290.328,419.905 293.328,420.072 296.5,420.5C 297.209,421.404 298.209,421.737 299.5,421.5C 285.174,423.807 270.507,425.14 255.5,425.5C 249.021,424.402 242.354,423.735 235.5,423.5C 235.5,423.167 235.5,422.833 235.5,422.5C 244.857,422.832 254.19,422.498 263.5,421.5C 270.951,416.557 278.284,411.391 285.5,406C 288.249,404.916 291.082,404.083 294,403.5C 295.03,403.164 295.53,402.497 295.5,401.5C 303.206,400.78 310.872,399.78 318.5,398.5 Z"/></g>
<g><path style="opacity:0.016" fill="#36374d" d="M 230.5,423.5 C 232.167,423.5 233.833,423.5 235.5,423.5C 235.5,423.833 235.5,424.167 235.5,424.5C 233.585,424.784 231.919,424.451 230.5,423.5 Z"/></g>
<g><path style="opacity:0.016" fill="#2f2b34" d="M 235.5,424.5 C 237.857,424.337 240.19,424.503 242.5,425C 239.961,425.796 237.628,425.629 235.5,424.5 Z"/></g>
<g><path style="opacity:0.012" fill="#46414e" d="M 255.5,425.5 C 255.5,425.833 255.5,426.167 255.5,426.5C 239.5,426.167 239.5,425.833 255.5,425.5 Z"/></g>
<g><path style="opacity:0.016" fill="#4b4d4d" d="M 269.5,426.5 C 272.64,425.359 275.973,425.192 279.5,426C 276.183,426.498 272.85,426.665 269.5,426.5 Z"/></g>
<g><path style="opacity:0.004" fill="#1b0e3e" d="M 255.5,426.5 C 259.846,426.334 264.179,426.501 268.5,427C 263.98,427.814 259.646,427.647 255.5,426.5 Z"/></g>
</svg>
