<svg width="200" height="200" viewBox="0 0 200 200" fill="none" xmlns="http://www.w3.org/2000/svg">
<path d="M88.003 63.6031C92.796 58.8101 98.4885 55.0132 104.748 52.4175C111.008 49.8217 117.721 48.4877 124.5 48.4877V34C115.819 34 107.223 35.7083 99.2068 39.0345C91.1843 42.3546 83.8982 47.22 77.7591 53.3592C71.6199 59.4983 66.7545 66.7844 63.4344 74.8069C60.1082 82.8234 58.3999 91.4195 58.3999 100.1H72.8876C72.8876 93.321 74.2216 86.6084 76.8174 80.3485C79.4131 74.0886 83.21 68.3961 88.003 63.6031Z" fill="#174C39"/>
<path d="M95.2227 87.9749C93.6291 91.8202 92.8081 95.9431 92.8081 100.102C92.8081 102.36 92.3614 104.6 91.4982 106.688C90.635 108.771 89.3673 110.672 87.7676 112.266C86.174 113.866 84.2725 115.133 82.1899 115.996C80.1012 116.86 77.8617 117.306 75.604 117.306V131.794C79.7632 131.794 83.8861 130.973 87.7314 129.379C91.5767 127.792 95.0718 125.456 98.0116 122.51C100.957 119.57 103.294 116.075 104.881 112.23C106.475 108.384 107.296 104.261 107.296 100.102C107.296 97.8446 107.742 95.6051 108.606 93.5164C109.469 91.4338 110.737 89.5323 112.336 87.9387C113.93 86.339 115.831 85.0713 117.914 84.2081C120.003 83.3449 122.242 82.8982 124.5 82.8982V68.4105C120.341 68.4105 116.218 69.2315 112.373 70.8251C108.527 72.4127 105.032 74.7489 102.092 77.6947C99.1465 80.6345 96.8103 84.1296 95.2227 87.9749Z" fill="#14C686"/>
<path d="M127.216 100.1C127.216 106.879 125.882 113.592 123.287 119.852C120.691 126.111 116.894 131.804 112.101 136.597C107.308 141.39 101.615 145.187 95.3555 147.783C89.0956 150.378 82.383 151.712 75.604 151.712V166.2C84.2845 166.2 92.8806 164.492 100.897 161.166C108.92 157.845 116.206 152.98 122.345 146.841C128.484 140.702 133.349 133.416 136.67 125.393C139.996 117.377 141.704 108.781 141.704 100.1H127.216Z" fill="#174C39"/>
</svg>
