<?xml version="1.0" encoding="utf-8"?>
<!-- Generator: Adobe Illustrator 27.8.1, SVG Export Plug-In . SVG Version: 6.00 Build 0)  -->
<svg version="1.1" id="Layer_1" xmlns="http://www.w3.org/2000/svg" xmlns:xlink="http://www.w3.org/1999/xlink" x="0px" y="0px"
	 viewBox="0 0 232.1 232.1" style="enable-background:new 0 0 232.1 232.1;" xml:space="preserve">
<style type="text/css">
	.st0{clip-path:url(#SVGID_00000007417508519483035340000018426621208045133209_);}
	.st1{fill:url(#SVGID_00000162320897398648872490000016920268862762952341_);}
	.st2{fill:#FFFFFF;}
	.st3{fill:url(#SVGID_00000001647559366671842490000015229042115897369490_);}
	.st4{fill:url(#SVGID_00000145750909057580189850000015419233465892957871_);}
</style>
<g>
	<g>
		<g>
			<defs>
				<rect id="SVGID_1_" x="37.7" y="37.7" width="156.7" height="156.7"/>
			</defs>
			<clipPath id="SVGID_00000102536536663542588030000001926607233924399250_">
				<use xlink:href="#SVGID_1_"  style="overflow:visible;"/>
			</clipPath>
			<g style="clip-path:url(#SVGID_00000102536536663542588030000001926607233924399250_);">
				
					<linearGradient id="SVGID_00000139992858446739141600000017177907163298418612_" gradientUnits="userSpaceOnUse" x1="66.8978" y1="-1552.0088" x2="174.9662" y2="-1679.6409" gradientTransform="matrix(1 0 0 -1 0 -1494)">
					<stop  offset="0" style="stop-color:#2C61F9"/>
					<stop  offset="1" style="stop-color:#1DCBFA"/>
				</linearGradient>
				<path style="fill:url(#SVGID_00000139992858446739141600000017177907163298418612_);" d="M116,37.7c-43.2,0-78.3,35.1-78.3,78.3
					s35.1,78.3,78.3,78.3s78.3-35.1,78.3-78.3S159.2,37.7,116,37.7z"/>
				<path class="st2" d="M49.1,140.4c4,11.1,18.5,17,37.4,17c12.5,0,27-2.6,41.7-7.9c37-13.4,61.5-39.3,54.7-57.8l0,0
					c-10-27.3-36.2-46.9-66.9-46.9c-39.3,0-71.2,31.9-71.2,71.2C44.8,124.6,46.3,132.8,49.1,140.4L49.1,140.4L49.1,140.4z"/>
				<path class="st2" d="M177.1,127.4c-11.1,11.7-27.6,21.9-46.5,28.8c-15,5.5-30.3,8.4-44.1,8.4c-10.4,0-19.4-1.7-26.6-4.7
					c13,16.7,33.3,27.4,56.1,27.4c39.3,0,71.2-31.9,71.2-71.2c0-0.9,0-1.7-0.1-2.6C184.8,118.1,181.4,122.7,177.1,127.4L177.1,127.4
					z"/>
				
					<linearGradient id="SVGID_00000137847283065123281810000006125515659685327761_" gradientUnits="userSpaceOnUse" x1="73.15" y1="-1607.4651" x2="73.15" y2="-1681.231" gradientTransform="matrix(1 0 0 -1 0 -1494)">
					<stop  offset="0" style="stop-color:#1DCBFA"/>
					<stop  offset="1" style="stop-color:#1DCBFA;stop-opacity:0"/>
				</linearGradient>
				<path style="fill:url(#SVGID_00000137847283065123281810000006125515659685327761_);" d="M86.5,157.4c4.8,0,9.9-0.4,15.1-1.2
					c-0.1,0-0.2-0.1-0.3-0.1c-18.9-6.9-35.4-17.1-46.5-28.8c-4.4-4.6-7.7-9.3-10-13.9c0,0.9-0.1,1.7-0.1,2.6
					c0,8.6,1.5,16.8,4.3,24.4l0,0C53.1,151.5,67.6,157.4,86.5,157.4L86.5,157.4z"/>
				
					<linearGradient id="SVGID_00000106866287374184516760000001349014409705594015_" gradientUnits="userSpaceOnUse" x1="116" y1="-1607.4651" x2="116" y2="-1681.231" gradientTransform="matrix(1 0 0 -1 0 -1494)">
					<stop  offset="0" style="stop-color:#1DCBFA"/>
					<stop  offset="1" style="stop-color:#1DCBFA;stop-opacity:0"/>
				</linearGradient>
				<path style="fill:url(#SVGID_00000106866287374184516760000001349014409705594015_);" d="M116,160.6
					c-10.1,2.6-20.1,3.9-29.5,3.9c-10.4,0-19.4-1.7-26.6-4.7c13,16.7,33.3,27.4,56.1,27.4s43.1-10.7,56.1-27.4
					c-7.2,3.1-16.2,4.7-26.6,4.7C136.1,164.5,126.1,163.2,116,160.6L116,160.6z"/>
			</g>
		</g>
	</g>
</g>
</svg>
