<svg width="1000" height="1000" viewBox="0 0 1000 1000" fill="none" xmlns="http://www.w3.org/2000/svg">
<rect width="1000" height="1000" rx="500" fill="#030914"/>
<path d="M232.265 345.426L499.716 191L499.566 499.658L232 653.907L232.265 345.426Z" fill="#217DD9"/>
<path d="M499.716 191L767 345.443L678.043 396.589L410.416 242.561L499.716 191Z" fill="#56E0B2"/>
<path d="M678.035 396.581L678.008 499.525L410.398 345.011V242.561L678.035 396.581Z" fill="#1DBF89"/>
<path d="M410.222 345.161L678.008 499.525L588.523 551.033L321.071 396.625L410.222 345.161Z" fill="#F5C946"/>
<path d="M588.523 551.033L588.567 654.18L321.336 499.605L321.071 396.625L588.531 551.024L588.523 551.033Z" fill="#D9A60B"/>
<path d="M321.336 499.605L588.576 654.172L499.646 705.476L232.256 551.033L321.327 499.613L321.336 499.605Z" fill="#F58750"/>
<path d="M499.637 705.476V808.421L232 653.907L232.256 551.033L499.637 705.476Z" fill="#D94F0B"/>
<path d="M678.035 396.581L766.991 345.435V653.96L677.955 705.406L678.035 396.581Z" fill="#2BD99F"/>
<path d="M588.523 551.033L678.008 499.525L677.955 705.406L588.62 757.019L588.523 551.033Z" fill="#F2BC18"/>
<path d="M499.637 705.476L588.567 654.172L588.611 757.01L499.628 808.412V705.468L499.637 705.476Z" fill="#F26924"/>
</svg>
